<?xml version="1.0" encoding="UTF-8" standalone="no"?>
<svg
   xmlns:dc="http://purl.org/dc/elements/1.1/"
   xmlns:cc="http://creativecommons.org/ns#"
   xmlns:rdf="http://www.w3.org/1999/02/22-rdf-syntax-ns#"
   xmlns:svg="http://www.w3.org/2000/svg"
   xmlns="http://www.w3.org/2000/svg"
   xmlns:sodipodi="http://sodipodi.sourceforge.net/DTD/sodipodi-0.dtd"
   xmlns:inkscape="http://www.inkscape.org/namespaces/inkscape"
   inkscape:version="1.0 (4035a4fb49, 2020-05-01)"
   sodipodi:docname="ForceWall.svg"
   width="100mm"
   height="100mm"
   viewBox="0 0 100 100"
   version="1.1"
   id="svg8">
  <sodipodi:namedview
     inkscape:current-layer="svg8"
     inkscape:window-maximized="0"
     inkscape:window-y="0"
     inkscape:window-x="166"
     inkscape:cy="188.97638"
     inkscape:cx="188.97638"
     inkscape:zoom="2.667"
     showgrid="false"
     id="namedview14"
     inkscape:window-height="1408"
     inkscape:window-width="2471"
     inkscape:pageshadow="2"
     inkscape:pageopacity="0"
     guidetolerance="10"
     gridtolerance="10"
     objecttolerance="10"
     borderopacity="1"
     bordercolor="#666666"
     pagecolor="#ffffff" />
  <defs
     id="defs2" />
  <metadata
     id="metadata5">
    <rdf:RDF>
      <cc:Work
         rdf:about="">
        <dc:format>image/svg+xml</dc:format>
        <dc:type
           rdf:resource="http://purl.org/dc/dcmitype/StillImage" />
        <dc:title />
      </cc:Work>
    </rdf:RDF>
  </metadata>
  <g
     id="layer1">
    <circle
       id="path84"
       style="fill:#0000ff;stroke:#000000;stroke-width:0.264583"
       cx="-346.2262"
       cy="263.07141"
       r="0.099906191" />
    <path
       style="fill:#0000ff;stroke-width:0.264583"
       id="path96"
       d="m 1.6854141,84.698032 c 0.962366,0.654246 1.7885939,1.483347 2.6181229,2.292596 0.3202795,0.312452 0.6195685,0.647062 0.9540465,0.944263 0.3127497,0.277895 0.6137889,0.584674 0.9846331,0.778354 0.383549,0.200316 0.8267716,0.255723 1.2401574,0.383585 6.032768,-1.721053 2.701909,-0.603435 13.697389,-8.030919 0.796306,-0.537905 1.328225,-1.400108 2.090863,-1.984774 0.958151,-0.73455 4.028698,-2.660626 3.04875,-1.955419 -5.964237,4.292087 -7.742679,3.847952 -1.30456,3.161255 3.700209,0.535347 3.673222,0.317381 7.035954,1.579676 1.924936,0.72258 2.687704,1.522328 4.757624,1.61576 1.758537,0.07938 3.201887,-0.569867 4.829034,-1.102712 1.893499,-0.610867 3.493228,-1.275114 5.521219,-1.332981 1.020599,-0.02912 2.050796,0.07934 3.048826,0.294764 2.855505,0.616374 5.311492,2.188356 7.778313,3.657394 0.556932,0.243229 1.077542,0.597847 1.670799,0.729684 1.25947,0.279892 2.27017,-0.07534 3.357152,-0.696741 3.997055,-2.285002 7.91862,-4.699595 11.874812,-7.054636 2.520935,-1.500661 13.954382,-8.575965 -7.441276,4.600147 1.54386,-0.09357 0.834747,-0.127897 2.249961,0.06065 0.301651,0.04019 0.600316,0.119496 0.904613,0.12311 0.30729,0.0037 0.647869,0.04808 0.916329,-0.101483 11.119162,-6.194658 8.629671,-3.664789 12.326982,-7.624215 4.788461,-2.662605 -6.123831,3.396017 -9.483325,5.638858 -0.266708,0.17806 0.652513,0.02747 0.951174,0.144262 1.445723,0.565327 2.624646,1.769261 3.742889,2.797942 0.992306,0.95763 2.055968,1.856377 3.319404,2.433577 0.484317,0.22126 0.696809,0.269446 1.194501,0.421909 0.740802,0.172665 1.358987,0.553871 1.923952,1.046787 0,0 11.089545,-6.921256 11.089545,-6.921256 v 0 c -0.712944,-0.591005 -1.453097,-1.152692 -2.34759,-1.441524 -0.197186,-0.04932 -0.392898,-0.10495 -0.591553,-0.147963 -0.594664,-0.128754 -0.730371,-0.09875 -1.334603,-0.295627 -1.0424,-0.33964 -1.961213,-0.925184 -2.826615,-1.588667 -1.050195,-0.857983 -1.452991,-1.167741 -2.481805,-2.090938 -0.414809,-0.372224 -0.796676,-0.781302 -1.224547,-1.138434 -0.360029,-0.300508 -0.701863,-1.010562 -1.135145,-0.831135 -9.370253,3.880307 -8.723198,3.395413 -12.515495,6.794042 -3.751284,3.173195 -0.38318,0.245102 9.418486,-5.094457 0.247965,-0.13508 -0.390577,0.434769 -0.652531,0.5402 -0.293235,0.118023 -0.626925,0.11375 -0.9428,0.101894 -0.925616,-0.03474 -1.821008,-0.428946 -2.766142,-0.264996 -4.011377,2.09388 -8.045588,4.144594 -12.034134,6.281644 -0.512246,0.274463 -1.971984,1.228458 -1.462116,0.949606 2.944267,-1.610231 5.813713,-3.355647 8.768913,-4.945724 0.491472,-0.264441 -0.873871,0.706313 -1.368888,0.964062 -1.583282,0.8244 -1.630706,0.513138 -3.436625,0.255651 -0.807916,-0.34381 -1.629095,-0.657992 -2.423753,-1.03143 -0.95626,-0.449382 -1.865085,-0.996321 -2.826014,-1.435624 -1.944026,-0.888743 -3.987149,-1.766472 -6.162686,-1.905609 -2.048057,-0.130982 -3.549912,0.454131 -5.465897,0.98832 -0.996924,0.374591 -3.310835,1.318114 -4.422116,1.455245 -2.477837,0.305758 -2.864676,-0.256675 -5.332675,-0.98062 -3.944641,-1.157092 -3.37753,-0.929182 -7.591565,-1.645822 -8.795966,0.260271 -3.700997,-0.507857 -16.975528,6.885239 -1.221049,0.680048 -2.373384,1.481566 -3.501027,2.307307 -0.909653,0.666115 -3.6469747,2.583923 -2.601635,2.1615 6.221847,-2.514259 11.18139,-6.88099 7.393003,-3.640839 -0.313252,0.05348 -0.628044,0.222264 -0.939758,0.160441 -0.655086,-0.129924 -1.505702,-1.021244 -1.907064,-1.435367 -0.782666,-0.807559 -1.483316,-1.695768 -2.073361,-2.653118 0,0 -11.1346179,6.823303 -11.1346179,6.823303 z" />
    <path
       style="fill:#0000ff;stroke-width:0.264583"
       id="path98"
       d="m 2.0780326,55.600785 c 3.0234751,-0.626613 5.9634419,-1.602288 9.0936284,-1.664119 2.07237,-0.04094 4.153615,0.127556 6.202763,0.439624 4.596656,0.700035 7.154507,1.794293 11.451149,3.286562 1.519145,0.612918 5.798693,2.422803 7.629221,2.883394 0.985602,0.247994 2.001758,0.392309 3.016917,0.440902 2.193758,0.105013 4.041711,-0.353883 6.213377,-0.565213 1.091477,-0.106212 2.188485,-0.144669 3.282727,-0.217006 3.30177,0.235516 3.203694,0.07834 6.392363,0.894368 0.892225,0.228335 1.75438,0.562388 2.640459,0.813522 0.744673,0.211058 1.482664,0.473538 2.2503,0.572633 2.048777,0.264483 2.543493,-0.100177 4.535231,-0.655463 3.407024,-1.383424 6.71186,-3.025555 10.491054,-2.899505 1.688026,0.0563 2.304066,0.343823 3.843782,0.812583 0.489384,0.195315 1.823964,0.773054 2.421671,0.858239 0.349451,0.0498 0.748302,0.146283 1.058725,-0.02175 3.985233,-2.15722 7.867866,-4.50278 11.717284,-6.893947 0.315174,-0.195781 1.055907,-1.019077 0.731525,-0.838962 -3.407497,1.89202 -6.688973,4.00259 -10.03346,6.003883 0.167807,-0.07556 0.320178,-0.20964 0.50342,-0.226663 0.439986,-0.04087 0.893747,0.309393 1.236057,0.491916 0.258503,0.137837 0.511151,0.289401 0.781875,0.401343 0.73646,0.304528 1.0096,0.312233 1.780564,0.451425 0.989269,0.09912 0.517999,0.06692 1.413208,0.105005 0,0 10.391177,-7.661296 10.391177,-7.661296 v 0 c -0.889,0.161409 -0.42448,0.101486 -1.394989,0.168343 -0.771898,-0.02598 -1.521219,-0.02786 -2.224728,-0.400314 -0.344913,-0.182605 -1.248105,-0.895541 -1.565534,-1.044276 -0.315791,-0.147971 -0.667472,-0.202388 -1.00121,-0.303583 -3.842509,2.282859 -7.716919,4.512855 -11.527525,6.848578 -0.29291,0.179538 -1.071951,0.847191 -0.76762,0.687774 3.370361,-1.765477 6.650625,-3.698034 9.991169,-5.519298 0.289452,-0.157808 -0.516895,0.446272 -0.836265,0.528047 -0.386276,0.09891 -0.801884,0.05164 -1.19619,-0.0076 -0.541816,-0.08145 -1.060926,-0.274283 -1.591389,-0.411422 -1.547786,-0.389914 -2.789121,-0.774354 -4.414052,-0.859954 -1.911879,-0.100716 -3.640005,0.142806 -5.486315,0.642665 -1.600335,0.433266 -3.533896,1.277816 -5.074451,1.909395 -1.553964,0.600696 -2.518053,1.138102 -4.224105,1.154496 -0.82936,0.008 -1.654421,-0.150694 -2.469602,-0.303604 -0.976649,-0.183198 -1.930038,-0.473972 -2.896958,-0.703043 -4.149389,-0.98302 -2.317922,-0.647198 -6.576255,-1.124546 -1.08961,0.0324 -2.181937,0.01373 -3.268827,0.09719 -1.287785,0.0989 -4.759134,0.674965 -6.07342,0.742014 -1.087694,0.05549 -2.183614,0.07764 -3.267165,-0.03222 -3.162173,-0.320615 -5.673931,-1.181016 -8.756309,-2.03562 -3.671728,-1.10713 -7.894666,-2.420218 -11.600978,-3.372546 -1.789895,-0.459909 -3.577718,-0.951706 -5.401916,-1.247584 -2.317475,-0.375883 -4.446762,-0.262724 -6.728284,0.0074 0,0 -10.6920994,7.768265 -10.6920994,7.768265 z" />
    <path
       style="fill:#0000ff;stroke-width:0.264583"
       id="path100"
       d="m 3.2499551,36.607998 c 2.3594041,-0.292743 4.7267322,-0.628361 7.1129919,-0.593079 3.559958,0.05263 6.839137,0.511125 10.293522,1.388636 1.639929,0.416589 3.224624,1.026377 4.836937,1.539566 1.327705,0.542978 2.658993,1.077269 3.983114,1.628931 2.196983,0.915321 3.266077,1.698469 5.641133,1.715722 1.264039,0.0092 5.285251,-0.976746 6.214031,-1.106786 1.307325,-0.183039 2.631022,-0.219329 3.946535,-0.328996 4.203354,0.190047 4.078095,0.0426 8.157496,0.77344 1.147445,0.205566 2.278528,0.493842 3.418425,0.737812 0.953227,0.204015 1.889373,0.526613 2.860939,0.606134 2.475143,0.202586 4.229214,-0.304536 6.65308,-0.758172 3.079793,-0.690742 4.177197,-1.100931 7.384391,-1.144616 1.166421,-0.01588 2.333379,0.09967 3.49123,0.241681 10.609498,1.301263 -3.528142,-0.153853 5.24024,1.05601 0.668898,0.0923 1.349198,0.05861 2.023798,0.08791 1.570725,0.01045 2.986669,-0.732806 4.518728,-0.927108 0.376143,-0.04771 0.758463,-0.05353 1.13701,-0.03208 0.753851,0.04271 1.095055,0.187502 1.791404,0.398555 0.546949,0.180592 1.098143,0.357466 1.61793,0.608669 0.175254,0.0847 0.228669,0.148783 0.110524,0.03217 0,0 11.212686,-7.140961 11.212686,-7.140961 v 0 c -0.0744,-0.05813 -0.13812,-0.133562 -0.22326,-0.174392 -0.0942,-0.04518 -0.20161,-0.05524 -0.30354,-0.07821 -0.64134,-0.144561 -1.29343,-0.240067 -1.92896,-0.411591 -1.15858,-0.339193 -2.30577,-0.676487 -3.531363,-0.634627 -0.502385,0.01714 -1.010462,0.05906 -1.496221,0.18838 -1.130922,0.301067 -2.103938,1.087785 -3.320899,1.139405 -0.712428,0.09409 -1.41868,0.278595 -2.137283,0.28227 -1.128586,0.0058 -4.99871,-0.593436 -5.918936,-0.686432 -2.411857,-0.243734 -5.056491,-0.438576 -7.477545,-0.150378 -1.168342,0.139078 -2.301037,0.492638 -3.451553,0.738957 -1.954123,0.387694 -4.206777,0.946428 -6.229107,0.925671 -1.063498,-0.01093 -2.117619,-0.206544 -3.171232,-0.351634 -1.23571,-0.170169 -2.461879,-0.403854 -3.694695,-0.59386 -4.7944,-0.738931 -3.332324,-0.527089 -8.164589,-1.021357 -2.826229,0.02996 -4.201525,-0.0857 -6.919698,0.403733 -2.585823,0.465597 -2.624413,1.106648 -5.407387,0.776689 -1.810848,-0.214699 -6.50181,-1.802336 -7.989213,-2.272384 -1.652159,-0.518846 -3.291382,-1.080836 -4.956477,-1.556536 -3.956591,-1.130356 -5.509901,-1.40626 -9.424467,-2.211544 -1.024372,-0.210727 -2.04388,-0.448744 -3.075527,-0.620355 -0.719464,-0.119682 -1.456129,-0.105479 -2.177932,-0.210206 0,0 -10.6462609,7.734961 -10.6462609,7.734961 z" />
    <path
       style="fill:#0000ff;stroke-width:0.264583"
       id="path102"
       d="m 3.3711298,18.020783 c 0.2379019,0.07387 0.472028,0.161222 0.7137056,0.2216 0.500971,0.125159 1.0064964,0.23185 1.5125416,0.334588 2.0623599,0.418705 4.1520089,0.786038 6.26473,0.495366 0.821167,-0.112977 1.616566,-0.367469 2.424849,-0.551203 3.560542,-1.127025 6.839956,-3.21141 10.536004,-3.918422 2.263692,-0.433019 2.744699,-0.235574 4.991872,-0.03557 2.040519,0.523134 2.084464,0.442657 3.915164,1.234948 0.657685,0.284633 1.782267,0.936723 2.505876,1.152378 1.284214,0.382733 1.559703,0.194419 2.975507,0.05057 1.878695,-0.336625 3.4397,-0.680037 5.387499,-0.718921 2.835161,-0.0566 5.047101,0.243149 7.818358,0.907541 2.843249,0.681652 4.276201,1.323881 6.929525,2.344421 1.417248,0.554764 2.853055,1.228604 4.380407,1.458809 0.565282,0.0852 1.144005,0.08713 1.714325,0.04793 1.264137,-0.08689 1.874666,-0.411847 3.100959,-0.620126 0.461449,-0.07837 0.931003,-0.0977 1.396505,-0.146558 0.429623,0.0501 0.866958,0.05502 1.288868,0.150291 0.924237,0.208713 1.282414,0.467385 2.068533,0.926723 0.533546,0.311756 0.968571,0.678738 1.626302,0.703144 0.33442,0.01241 0.659055,-0.116678 0.988583,-0.175017 0.633839,-0.32283 1.599928,-0.875928 2.31226,-0.969249 1.745388,-0.228659 3.497816,0.566671 4.971598,1.394171 0.461129,0.258914 0.888793,0.573369 1.333188,0.860053 1.006506,0.728667 1.910865,1.421414 3.081668,1.8671 0.737801,0.280856 1.510786,0.41181 2.285788,0.533674 0.582015,0.07665 0.327239,0.03134 0.766765,0.12139 0,0 10.63495,-7.707858 10.63495,-7.707858 v 0 c -0.54473,0.07356 -0.24393,0.04381 -0.90372,0.07479 -0.776121,0.0047 -1.553263,0.02549 -2.322246,-0.107573 -0.323,-0.05589 -0.647353,-0.117358 -0.958043,-0.221877 -0.899797,-0.302702 -1.515303,-0.709625 -2.349701,-1.179965 -1.04897,-0.591538 -2.12371,-1.213967 -3.201215,-1.750549 -0.576286,-0.286983 -1.151252,-0.581002 -1.751105,-0.814761 -0.857451,-0.334144 -2.082421,-0.758744 -3.055733,-0.542457 -0.326848,0.07263 -0.569799,0.351786 -0.854697,0.527679 -0.286441,0.251744 -0.773637,0.793894 -1.236303,0.796045 -0.595643,0.0028 -1.541277,-0.647855 -1.976736,-0.856004 -0.43596,-0.208388 -0.872893,-0.421839 -1.332752,-0.570215 -0.485126,-0.156529 -0.993865,-0.227215 -1.4908,-0.340822 -0.524322,-0.0033 -1.052255,-0.07133 -1.572969,-0.0098 -1.022358,0.12078 -2.10471,0.621309 -3.09364,0.856319 -0.581594,0.13821 -1.169308,0.278197 -1.766197,0.311036 C 71.34403,14.269243 70.482708,13.900898 68.362779,13.428488 67.208812,13.08324 66.054019,12.740734 64.900875,12.392744 63.611259,12.003569 62.330321,11.585045 61.034514,11.216998 58.60049,10.525663 56.251453,9.8785427 53.73176,9.5987128 51.756786,9.379378 50.892686,9.5230854 49.034451,9.672495 48.335093,9.7882103 47.272199,10.020353 46.529328,9.9485502 45.527303,9.8516989 44.565479,9.4085755 43.627883,9.1025831 41.48887,8.4044972 41.53263,8.4606232 39.235327,7.8843115 36.915841,7.5672904 36.244096,7.311001 33.879755,7.6603248 30.247418,8.1969905 26.962137,10.159355 23.562072,11.418834 c -0.723094,0.210203 -1.430386,0.485413 -2.169283,0.630609 -2.219201,0.436083 -4.549976,0.147625 -6.540332,-0.93749 -0.156627,-0.08539 -0.290305,-0.207404 -0.435457,-0.311106 0,0 -11.0458702,7.219937 -11.0458702,7.219936 z" />
    <path
       style="fill:#0000ff;stroke-width:0.264583"
       id="path104"
       d="m 33.001765,4.1690811 c -0.257096,0.093293 -0.521743,0.1679482 -0.771287,0.2798794 -0.453835,0.2035633 -0.911075,0.406196 -1.335718,0.6651974 -3.98441,2.4302029 -8.080799,4.6974585 -11.886275,7.3992651 -0.918606,0.652191 -1.582138,3.051632 -1.533451,4.044137 0.04064,0.828434 0.43657,1.600383 0.654854,2.400574 2.507141,3.338667 0.942816,1.483035 3.951225,4.542126 0.674111,0.685467 1.406552,1.320575 2.006758,2.071604 0.491232,0.614671 1.12286,1.226181 1.249406,2.002786 0.198512,1.21825 -1.613351,3.898146 -2.030134,4.62571 -0.649609,0.924896 -1.311789,1.841087 -1.948826,2.774683 -1.201982,1.761545 -2.580745,3.425314 -2.814201,5.660379 -0.102323,0.979623 0.04701,1.999351 0.361908,2.932607 0.573383,1.699321 2.677876,4.385477 3.67489,5.770613 1.225849,2.06384 2.33192,3.363976 2.567025,5.825112 0.08922,0.933955 -0.05672,1.890749 -0.289023,2.799741 -0.474232,1.855634 -1.637787,3.590451 -2.618443,5.189871 -0.470895,0.768014 -0.958299,1.525783 -1.437449,2.288675 -0.604125,1.874134 -1.227111,2.476423 -0.174107,4.393089 0.419021,0.762695 1.132562,1.322517 1.731431,1.953897 1.124386,1.185429 2.286229,1.922259 2.907014,3.489254 0.198252,0.500427 0.139048,1.067519 0.208572,1.601277 -0.334181,1.724831 -1.400282,3.123795 -2.163217,4.661087 -0.234156,0.471819 -0.473147,0.946357 -0.62981,1.449248 -0.384282,1.233553 -0.261065,1.614048 -0.209715,2.87587 0.201628,1.482349 0.45087,3.014424 0.06912,4.49713 -0.314245,1.220534 -0.999977,2.446248 -1.696901,3.474226 -0.413286,0.609605 -0.897056,1.168328 -1.345584,1.752491 -1.158637,1.34955 -1.481213,1.554078 -2.267749,3.062139 -0.195222,0.374309 -0.318804,0.781815 -0.478206,1.172724 0,0 11.421341,-5.310392 11.421341,-5.310392 v 0 c 0.09514,-0.28494 0.160618,-0.581567 0.285416,-0.854821 0.551784,-1.208153 0.966193,-1.593334 1.83007,-2.732114 1.042959,-1.479311 1.705825,-2.265693 2.448013,-3.929448 0.289801,-0.649645 0.530809,-1.325309 0.69751,-2.016856 0.378397,-1.56977 0.190378,-3.169941 0.103772,-4.755477 0.04901,-1.070888 -0.01003,-1.353082 0.32063,-2.380589 0.143585,-0.446196 0.34021,-0.873863 0.528974,-1.302901 0.41678,-0.947277 1.174604,-2.353535 1.431049,-3.33955 0.17571,-0.675595 0.196861,-1.382191 0.295291,-2.073288 -0.217051,-0.624633 -0.327006,-1.297527 -0.651155,-1.873901 -0.721802,-1.283454 -2.120927,-2.402657 -3.054927,-3.491796 -0.797745,-0.930248 -1.644105,-1.852872 -1.589265,-3.183456 0.02588,-0.628057 0.338572,-1.210736 0.507857,-1.816105 0.397949,-0.734375 0.801151,-1.465927 1.193848,-2.203122 0.952989,-1.78902 2.063808,-3.612634 2.398498,-5.663255 0.167148,-1.024099 0.185333,-2.092894 -0.005,-3.112945 -0.415383,-2.226514 -1.789306,-4.088513 -2.924792,-5.962237 -1.468337,-2.372048 -3.520776,-5.012169 -3.162461,-8.019579 0.240604,-2.019448 1.420521,-3.542009 2.510819,-5.165206 0.670544,-0.998281 1.384231,-1.966894 2.076347,-2.950343 1.033118,-1.858272 2.602325,-3.645394 1.928124,-6.015331 -0.234598,-0.824654 -1.024276,-1.378675 -1.600813,-2.013258 -0.644536,-0.709429 -1.391775,-1.319315 -2.055329,-2.010989 -2.212324,-2.306073 -1.658122,-1.689299 -3.179574,-4.265001 -0.276077,-1.75146 -0.640662,-2.132107 0.284125,-3.7692066 0.343091,-0.6073571 1.979414,-1.8843998 1.338757,-1.6084383 -3.128869,1.3477568 -5.987171,3.2525979 -8.971301,4.8961459 -0.303447,0.167128 0.618601,-0.312065 0.928671,-0.46656 0.138658,-0.06909 0.27833,-0.136123 0.417495,-0.204184 0,0 10.495867,-8.0611889 10.495867,-8.0611889 z" />
    <path
       style="fill:#0000ff;stroke-width:0.264583"
       id="path106"
       d="M 47.086863,9.6399195 C 46.401479,10.1007 45.85985,10.45643 45.163017,10.987746 c -0.664416,0.5066 -1.403953,0.938 -1.962285,1.559579 -1.508432,1.679307 -2.777119,3.935374 -2.915348,6.251729 -0.07669,1.285146 0.388188,2.545436 0.582282,3.818154 1.697579,2.96109 4.361637,5.146844 6.381964,7.845535 1.807059,2.413815 3.104938,4.34198 3.166853,7.41951 0.04978,2.474452 -1.069382,4.33493 -2.031132,6.4951 -0.971523,2.394738 -1.603645,3.601561 -2.094288,6.117315 -0.174239,0.893413 -0.244951,1.806072 -0.291582,2.715122 -0.07981,1.555909 0.08999,3.20884 0.149194,4.762465 0.02916,0.765334 0.03495,1.53138 0.05243,2.297068 -0.143393,2.494317 -0.07511,2.572052 -0.547841,5.151019 -0.177953,0.970823 -0.441917,1.924429 -0.624432,2.894404 -0.175562,0.933022 -0.389853,1.864982 -0.4494,2.812505 -0.142849,2.272985 0.153744,2.839755 0.666686,4.966322 0.222655,0.631449 0.446252,1.262568 0.667965,1.894348 0.431376,1.229214 0.96136,2.44511 0.621284,3.774368 -0.214228,0.837343 -0.619655,1.321594 -1.085139,2.034128 -0.758954,0.963363 -1.621493,1.84958 -2.579293,2.617329 -1.154935,0.925764 -2.435804,1.691736 -3.683463,2.481821 -0.448913,0.267459 -0.897826,0.534919 -1.34674,0.802378 0,0 11.46112,-4.436464 11.46112,-4.436464 v 0 c 0.410991,-0.261729 0.821981,-0.523457 1.232969,-0.785186 1.349621,-0.883721 2.736186,-1.73568 3.928983,-2.832383 0.924891,-0.850381 1.665889,-1.876351 2.338298,-2.930038 0.483039,-1.032843 0.800891,-1.460976 0.881414,-2.624074 0.06929,-1.000858 -0.152423,-1.727171 -0.561924,-2.627379 -0.211051,-0.463954 -0.49973,-0.888783 -0.732756,-1.342093 -0.278402,-0.541581 -0.534091,-1.094542 -0.801134,-1.641814 -0.566368,-1.896361 -0.848207,-2.309691 -0.77787,-4.380219 0.03047,-0.897141 0.186917,-1.787075 0.343373,-2.670993 0.50115,-2.831279 1.529988,-5.583787 1.474132,-8.497697 -0.01471,-0.785127 -0.0096,-1.570876 -0.04414,-2.355384 -0.05582,-1.268833 -0.279029,-3.239 -0.267239,-4.509751 0.0076,-0.815883 0.03251,-1.635972 0.15277,-2.442978 0.370366,-2.485379 0.86383,-3.378792 1.76857,-5.790371 0.929148,-2.463107 1.994173,-4.315243 1.560663,-7.081798 -0.199768,-1.274887 -0.776882,-2.481784 -1.414695,-3.603588 -0.761283,-1.338972 -1.809782,-2.493277 -2.746774,-3.715753 -4.338262,-5.660043 -2.011469,-1.915496 -5.225137,-7.821958 -0.09947,-1.14054 -0.458547,-2.288005 -0.298416,-3.421621 0.356764,-2.525634 1.833576,-4.2243459 3.671393,-5.8292335 0.774684,-0.6765004 1.692994,-1.169008 2.558806,-1.7241279 0.208018,-0.1333709 2.432775,-1.4523336 2.998258,-1.7879761 0,0 -12.254534,4.794854 -12.254533,4.794854 z" />
    <path
       style="fill:#0000ff;stroke-width:0.264583"
       id="path108"
       d="m 83.608695,89.203772 c -0.131413,-0.25096 -0.296437,-0.48701 -0.394243,-0.752874 -1.28338,-3.488555 -0.78891,-7.13187 -0.02074,-10.674906 0.256421,-1.182706 0.595905,-2.345867 0.893855,-3.518799 0.571863,-2.203432 1.253482,-4.173363 1.214784,-6.482988 -0.01654,-0.987639 -0.186481,-1.976882 -0.44913,-2.929101 -0.596987,-2.164358 -1.518933,-3.338576 -2.606416,-5.269103 -0.467227,-0.82944 -0.908092,-1.673455 -1.362141,-2.510182 -0.202803,-0.913563 -0.531315,-1.808069 -0.608412,-2.740694 -0.173775,-2.102133 0.322911,-4.260831 0.818859,-6.273451 0.266277,-1.080592 0.709364,-2.117545 0.911159,-3.212015 0.472244,-2.56128 0.245615,-3.698226 0.07831,-6.230368 -0.211254,-1.645148 -0.576828,-3.676301 -0.401717,-5.361348 0.08653,-0.832683 0.318461,-1.647033 0.564381,-2.447266 0.484433,-1.576358 1.142309,-2.789563 1.821957,-4.271507 0.25862,-0.563907 0.505421,-1.133161 0.758132,-1.699742 0.157779,-0.506466 0.397399,-0.994388 0.473337,-1.519398 0.15285,-1.056722 -0.120041,-2.614179 -0.162285,-3.647117 -0.02874,-0.702822 -0.04595,-1.40815 -0.0027,-2.110228 0.09627,-1.562341 0.383251,-2.799802 0.676224,-4.329225 0.732198,-2.77323 0.500102,-5.628999 0.200435,-8.4415423 0.03989,-0.2115505 0.03109,-0.4384468 0.119679,-0.6346518 0.17576,-0.3892486 0.830345,-0.9810078 1.115277,-1.2090098 0.916864,-0.7336712 1.960319,-1.2810379 2.992139,-1.828779 -17.463013,10.6362599 -12.997593,6.9023014 -9.108382,5.4472476 0,0 10.319692,-7.9281226 10.319692,-7.9281226 v 0 c -0.190368,0.039503 -0.384239,0.064823 -0.571103,0.1185088 -4.537276,1.30354519 -7.597238,7.5193132 -12.380897,6.8766496 -1.579935,1.0197121 -3.55243,2.2411891 -3.828319,4.2890474 -0.03869,0.2871861 0.02795,0.5788871 0.04192,0.8683301 0.217646,0.917888 0.491461,1.822767 0.617855,2.760362 0.219403,1.62757 0.138943,3.255373 -0.142729,4.872134 -0.255643,1.723484 -0.424461,2.707648 -0.588338,4.460165 -0.07114,0.760816 -0.124796,1.523479 -0.160489,2.28678 -0.02898,0.61967 0.01357,1.24218 -0.03346,1.86074 -0.09588,1.260752 -0.265631,1.717714 -0.571256,2.899198 -0.177763,0.525719 -0.35237,1.05252 -0.533292,1.577163 -0.223533,0.648208 -0.468791,1.289026 -0.680064,1.941332 -0.255257,0.788112 -0.53145,1.572051 -0.719193,2.378914 -0.207965,0.893768 -0.420719,1.796719 -0.465667,2.71326 -0.06157,1.255598 0.428718,4.090164 0.609574,5.294362 0.242155,2.56249 0.456711,3.137538 0.02439,5.757596 -0.544796,3.301679 -1.124847,3.316054 -1.584675,6.742411 -0.428855,3.195566 -0.116578,3.357531 0.571056,6.390074 0.467587,0.831609 0.943282,1.658712 1.402762,2.49483 0.827265,1.505371 1.861905,3.286382 2.343947,4.963054 0.243647,0.847476 0.414861,1.724687 0.458226,2.605421 0.111469,2.263971 -0.411768,3.923506 -0.886931,6.130031 -0.575823,2.317099 -1.254741,4.887079 -1.676196,7.238505 -0.562186,3.13659 -0.811956,6.348105 -0.508889,9.526378 0,0 11.419718,-6.470076 11.419718,-6.470076 z" />
  </g>
  <path
     d="m -9.0730871,66.47522 c 2.3609189,-0.366593 4.7245741,-0.422095 7.069131,0.139028 0.8058192,0.192858 1.6061303,0.439079 2.35717133,0.789046 0.66460917,0.309689 1.23942307,0.783762 1.85913457,1.175644 0.4173214,0.474739 0.888524,0.907066 1.2519644,1.424218 0.3162921,0.450064 0.5410718,0.959194 0.7734389,1.457796 0.3485981,0.748003 0.6710699,2.139518 1.4397493,2.643351 1.6190497,1.061207 6.0172026,2.158566 7.5159046,2.596833 3.786089,1.134062 6.18616,1.778555 9.865904,3.16806 1.876831,0.708707 5.128889,1.954765 6.765173,3.399425 1.357275,1.198329 1.459743,2.212085 1.943386,3.784631 0.401701,1.336866 -0.236845,2.775469 -0.07905,4.116316 0.141732,1.204418 0.834535,2.215817 1.443048,3.222839 0.379896,0.740821 0.676243,1.07708 0.641863,1.94699 -0.01548,0.391477 -0.121552,0.77752 -0.243435,1.149863 -0.407972,1.246304 -1.175679,2.336364 -1.876007,3.42815 -0.110093,0.29626 -0.347726,0.57321 -0.330282,0.88878 0.09348,1.6911 2.733183,1.62928 3.786836,1.79201 3.03354,0.46854 2.025724,0.27097 4.900927,1.15549 0.592328,0.32269 1.230238,0.57304 1.776989,0.96808 0.828294,0.59844 1.320078,1.31194 1.677075,2.2439 0.432072,1.12795 0.111196,0.92827 0.432874,2.01464 0.08286,0.27982 0.230611,0.53618 0.345919,0.80427 0.593492,0.17003 1.165794,0.45258 1.780479,0.5101 0.974487,0.0912 1.956914,-0.0474 2.93542,-0.0689 1.338127,-0.0294 2.676046,-0.0906 4.01448,-0.0837 1.597954,0.008 3.196598,0.0418 4.792181,0.12926 2.780766,0.15237 6.142977,0.55388 8.920149,0.85581 4.671066,0.65537 2.483345,0.29961 6.568358,1.03485 0,0 6.326936,-4.48603 6.326936,-4.48603 v 0 c -4.645747,-0.28268 -2.205119,-0.11517 -7.321028,-0.51481 -1.481632,-0.13442 -2.963159,-0.27002 -4.4449,-0.40326 -1.524428,-0.13708 -3.050931,-0.25233 -4.573608,-0.40769 -1.439746,-0.14689 -2.874957,-0.33529 -4.312891,-0.49897 -1.124119,-0.12795 -2.249736,-0.2428 -3.373255,-0.37595 -0.732039,-0.0868 -1.460555,-0.2023 -2.193205,-0.28374 -0.323191,-0.0359 -0.648769,-0.0455 -0.973154,-0.0682 -0.123044,-0.18418 -0.274804,-0.35213 -0.369133,-0.55254 -0.589172,-1.25175 -0.04595,-0.72774 -0.830101,-2.09383 -0.257255,-0.44817 -0.530371,-0.89926 -0.893649,-1.26677 -1.14295,-1.15627 -2.031148,-1.3804 -3.515701,-2.06051 -0.89226,-0.299359 -3.615238,-1.220881 -4.563552,-1.509126 -0.503187,-0.152945 -1.015418,-0.27441 -1.5221,-0.415343 -0.241141,-0.06707 -0.491808,-0.108792 -0.721313,-0.208667 -0.07722,-0.0336 -0.17721,-0.09744 -0.175585,-0.181636 0.0042,-0.219819 0.127519,-0.420825 0.191275,-0.631238 0.767689,-1.520243 1.852819,-3.408912 1.829316,-5.147251 -0.01413,-1.044298 -0.321903,-1.39726 -0.777343,-2.257513 -0.396862,-0.64203 -0.73991,-1.119412 -0.995624,-1.835618 -0.293185,-0.82115 -0.24836,-1.172996 -0.320186,-2.048669 -0.153556,-1.872144 -0.02434,-0.987544 -0.54234,-3.025793 -0.342628,-0.629973 -0.569439,-1.338472 -1.02788,-1.889916 -1.647222,-1.981407 -3.016009,-2.376292 -5.46966,-3.285953 -1.428879,-0.529741 -2.898545,-0.942274 -4.344564,-1.423268 -5.905523,-1.964367 -3.69841,-1.183606 -9.419924,-3.438025 -1.960376,-0.978575 -3.974147,-1.74031 -5.601621,-3.249525 -0.349078,-0.32371 -0.569181,-0.764738 -0.819725,-1.169551 C 12.232855,67.99904 12.035226,67.524317 11.76668,67.090929 10.665844,65.314361 10.769982,65.613192 9.1905509,64.07255 8.4956533,63.659972 7.8376131,63.177798 7.1058573,62.834816 5.5744398,62.117022 3.9036135,61.747513 2.2747404,61.345577 1.6393611,61.18879 1.0067659,61.01752 0.36419705,60.893449 c -0.49419291,-0.09542 -1.00459266,-0.08422 -1.49844635,-0.186132 0,0 -7.9388378,5.767903 -7.9388378,5.767903 z"
     id="path16"
     style="fill:#0000ff;stroke-width:0.264583" />
  <path
     d="m 92.534726,101.8349 c -0.555247,-0.0105 -1.111753,0.007 -1.665738,-0.0316 -1.929778,-0.13541 -4.595164,-0.50945 -6.436156,-0.77533 -2.928297,-0.42292 -5.387221,-0.79622 -8.282995,-1.40186 -1.20708,-0.252457 -2.400959,-0.564353 -3.60144,-0.846529 -1.453171,-0.659963 -3.755985,-1.329817 -4.594648,-2.987378 -0.306414,-0.605613 -0.27754,-1.374543 -0.113004,-2.033014 0.189812,-0.759624 0.632288,-1.456216 1.134899,-2.056585 1.479851,-1.767676 3.289027,-2.597086 5.23231,-3.755117 -1.006838,0.686146 -2.97933,0.840729 -3.02051,2.058442 -0.03635,1.074902 1.988156,-0.821637 2.99176,-1.208317 0.815314,-0.314138 1.644473,-0.591151 2.464123,-0.893797 0.630827,-0.232929 1.268262,-0.45003 1.887215,-0.712896 0.494477,-0.210003 0.986671,-0.431761 1.449654,-0.70426 2.956465,-1.740104 5.869057,-3.553696 8.803585,-5.330545 1.69129,-1.626605 3.624471,-2.966624 5.447075,-4.434136 0.773641,-0.622916 1.558202,-1.235474 2.285388,-1.91204 0.680837,-0.633445 1.35931,-1.279827 1.932427,-2.01217 0.498917,-0.637527 0.843185,-1.382199 1.264777,-2.073299 0.879602,-2.980555 0.411302,-0.946449 0.770562,-3.750818 0.0631,-0.492514 -7.9e-4,-1.032732 0.23149,-1.471519 0.25094,-0.473769 0.72213,-0.800188 1.1458,-1.128726 0.56292,-0.436531 2.41978,-1.502796 1.79842,-1.15442 -1.65983,0.930622 -3.27728,1.93488 -4.915927,2.902318 3.959447,-2.097381 5.152247,-2.69631 10.476417,-6.045237 0.58183,-0.365971 1.10458,-1.076478 1.0536,-1.808239 -0.0225,-0.323114 -0.1671,-0.636823 -0.3417,-0.909632 -0.21309,-0.332952 -0.53365,-0.583335 -0.80047,-0.875001 -1.51034,-1.384406 -2.80587,-2.868938 -3.15247,-4.966737 -0.0776,-0.469876 -0.0392,-0.951685 -0.0588,-1.427528 0,0 -7.870667,4.098348 -7.870667,4.098348 v 0 c 0.06866,0.520007 0.0879,1.048965 0.205988,1.560018 0.47669,2.063004 1.693733,3.808307 2.959269,5.46 0.32079,0.508069 0.78731,0.931201 0.34,1.515517 -0.16248,0.212244 -0.80463,0.689113 -0.56668,0.567362 1.41079,-0.721831 9.85843,-5.492157 4.14488,-2.328577 -3.0622,1.763851 -6.163811,3.460975 -9.186596,5.291551 -1.298403,0.786304 -2.606392,1.720421 -3.203757,3.195492 -0.181221,0.447487 -0.07675,0.962559 -0.108189,1.444326 -0.143218,2.194922 0.07886,0.924287 -0.551918,3.21124 -0.355518,0.59663 -0.639053,1.242523 -1.066548,1.789885 -1.084287,1.388316 -2.706193,2.666386 -4.070218,3.728656 -2.075622,1.616445 -4.286983,3.057062 -6.296869,4.758822 2.034021,-1.115711 4.054949,-2.255633 6.102064,-3.34713 0.561131,-0.299188 -1.07628,0.681051 -1.642959,0.96959 -0.715298,0.364212 -1.45768,0.67328 -2.197079,0.985668 -0.916223,0.387096 -1.847527,0.737513 -2.768819,1.112374 -6.343738,2.581185 -2.876624,1.142799 -12.817216,6.509221 -2.083734,1.316927 -4.233344,2.379139 -5.730473,4.442055 -0.55916,0.770478 -1.038296,1.675104 -1.130773,2.622595 -0.338453,3.467687 3.741851,4.407507 6.11243,5.256817 2.46362,0.45778 5.436442,0.99432 7.876971,1.51433 3.078607,0.65597 6.145398,1.38868 9.106424,2.46924 0.391459,0.14286 0.76976,0.31948 1.154642,0.47921 0,0 7.820459,-5.56066 7.820459,-5.56066 z"
     id="path18"
     style="fill:#0000ff;stroke-width:0.264583" />
  <path
     d="m 85.075338,-6.6902369 c -0.204906,0.061788 -0.416607,0.1043927 -0.614719,0.1853631 -0.554519,0.2266371 -3.497297,1.6091051 -3.720809,1.7134692 -2.747338,1.2828225 -5.497095,2.5569511 -8.260601,3.80463139 -4.625197,1.99528681 -7.628377,3.22250371 -11.772953,7.37861411 -0.374147,0.3751876 0.558869,0.9016529 0.872461,1.3287488 1.049552,1.4294284 0.7406,0.4325943 0.974145,1.8049055 C 59.084291,11.345554 66.438959,7.5171765 67.575924,6.1714265 68.290233,5.3259487 65.434741,6.7675529 64.335318,6.8953644 62.859845,7.0668927 61.367053,7.1116827 59.882354,7.0658283 55.686049,6.9362269 54.019076,6.4406464 49.924144,5.6432436 46.272553,4.7652852 42.734939,3.4996508 39.310357,1.968528 38.325956,1.5284047 36.923077,0.84556215 35.946267,0.27716115 35.650638,0.10513659 35.373026,-0.09613319 35.086406,-0.28278034 31.82643,-2.9142179 34.718265,-2.0501839 25.51728,3.5716815 25.219703,3.7535032 25.394578,4.2669274 25.244346,4.5816363 24.763728,5.5884471 23.443193,7.2618462 22.860752,8.0502381 20.96977,10.449492 18.879135,12.680117 16.699438,14.817191 c -0.68276,0.669409 -1.386505,1.317073 -2.079757,1.975609 0,0 7.374309,-3.045855 7.374309,-3.045855 v 0 C 24.832523,10.87091 27.637499,7.9592442 30.265105,4.886711 30.89126,4.1542895 31.520968,3.4248918 32.143567,2.6894467 32.636957,2.1066338 33.088286,1.4867541 33.613018,0.93199586 33.916202,0.61146337 35.01939,-0.1138106 34.619263,0.07209481 14.396871,9.4677565 23.759731,3.4578213 26.70099,4.4453505 c 0.265806,0.089244 0.519404,0.2113981 0.779106,0.3170973 1.794052,0.564225 3.603543,1.0608363 5.419566,1.5504559 3.903474,1.0524186 7.814283,2.0798113 11.750992,3.0018487 3.429847,0.7324676 6.08607,1.3640666 9.548418,1.8562076 0.502769,0.07146 5.6036,0.747469 6.627847,0.302067 3.27464,-1.424003 6.390786,-3.2210725 9.380056,-5.174356 0.371157,-0.2425263 0.301815,-0.833796 0.452723,-1.2506941 -0.844531,-1.7168413 -0.04999,-0.2803792 -1.228092,-1.9106692 -0.1529,-0.2115894 -0.165963,-0.7627588 -0.409131,-0.6677961 -2.493843,0.9738989 -4.766567,2.4398035 -7.16657,3.6262703 -1.502214,0.7426343 6.638933,-3.5341915 4.506243,-2.2287076 2.583056,-1.1682987 5.161494,-2.3521979 7.780636,-3.43848259 2.489494,-1.03251343 0.938348,-0.37312448 2.772913,-1.05657974 0.119369,-0.0444701 0.234246,-0.1001712 0.351369,-0.15025682 0,0 7.808272,-5.91199205 7.808272,-5.91199205 z"
     id="path20"
     style="fill:#0000ff;stroke-width:0.264583" />
  <path
     d="m 12.386139,-4.0151023 c -0.943996,0.9450028 -1.938246,1.849221 -2.952437,2.7168948 C 8.6906374,-0.66249128 7.9188642,-0.06094121 7.1731142,0.57162257 6.4375966,1.1955071 5.6664989,1.7831684 4.990244,2.4708441 4.4098593,3.0610307 3.9410608,3.7514228 3.416469,4.3917121 2.679978,6.5328241 2.574572,6.0424811 2.8457861,8.2497053 c 0.083811,0.6820845 0.3021917,1.3435171 0.3801049,2.0263007 0.081387,0.713224 0.271816,1.455246 0.096616,2.151391 -0.5183161,2.059494 -2.49815827,3.881442 -3.76685756,5.346612 -1.13330304,1.059965 -2.26660624,2.119929 -3.39990924,3.179893 -1.2172206,1.085944 -2.4542472,2.150088 -3.6516622,3.257832 -1.12401,1.039837 -2.2649071,2.065981 -3.311404,3.183793 -1.846372,1.972199 -3.184769,3.434744 -3.766669,6.113285 -0.202874,0.933844 -0.03305,1.910969 -0.04958,2.866453 0.942154,3.144288 0.449905,2.05404 1.955016,4.920917 0.376665,0.717457 0.827649,1.396844 1.165256,2.133486 0.303244,0.661668 0.627353,1.33286 0.752032,2.049947 0.337276,1.93983 -0.217579,2.674824 -0.871151,4.492699 -0.529484,0.845674 -0.993149,1.736317 -1.588453,2.537026 -0.66804,0.898543 -1.42173,1.732484 -2.190801,2.546231 -1.49242,1.57912 -3.008518,2.878098 -4.695425,4.231587 -0.648839,0.520594 -1.322765,1.009126 -1.984147,1.513689 0,0 7.702826,-3.095889 7.702826,-3.095889 v 0 c 0.540841,-0.46758 1.090493,-0.925158 1.622522,-1.402739 1.564567,-1.404456 2.8236189,-2.594359 4.2544895,-4.166312 0.8072101,-0.886799 1.6239185,-1.77042 2.3415061,-2.731185 0.6695876,-0.896501 1.2066304,-1.884752 1.8099455,-2.827126 0.7919675,-2.203267 1.4163831,-2.866147 0.9001141,-5.178457 -0.1654371,-0.740973 -0.5686216,-1.410382 -0.917661,-2.084609 -0.3666387,-0.708224 -0.8385733,-1.357458 -1.2253158,-2.054908 -1.3604124,-2.45336 -1.0321004,-1.875584 -1.8603338,-4.538784 -0.018341,-0.832914 -0.190177,-1.676659 -0.055027,-2.498738 0.3845126,-2.338872 1.4495841,-3.66612 3.0072234,-5.431759 0.9439733,-1.070028 1.9842817,-2.052473 3.0225407,-3.03128 2.42935339,-2.290247 5.0473737,-4.374813 7.4584575,-6.68538 1.9267797,-2.069378 3.9524545,-3.6633 4.7933038,-6.4716914 0.217387,-0.7260582 -0.0073,-1.5161612 -0.04001,-2.273358 -0.01277,-0.295544 -0.263119,-3.1245187 -0.183373,-3.6412505 0.08386,-0.5433894 0.347568,-1.0432713 0.521352,-1.5649069 0.429675,-0.54929556 0.804695,-1.14611866 1.289025,-1.64788669 0.633298,-0.65609951 1.349282,-1.22788931 2.050034,-1.81139571 2.270802,-1.8908672 4.693047,-3.5868628 7.069399,-5.339249 0,0 -9.093636,3.6609549 -9.093636,3.6609549 z"
     id="path22"
     style="fill:#0000ff;stroke-width:0.264583" />
  <path
     d="m 1.0072204,57.190838 c 1.2636189,-1.605727 2.8400284,-2.926453 4.4385435,-4.183613 1.1110886,-0.873821 2.2527212,-1.708412 3.3961223,-2.539503 2.1481728,-1.56142 5.1142448,-3.601831 7.3143478,-5.127863 0.911752,-0.702992 1.916957,-1.299112 2.735256,-2.108972 0.540558,-0.534985 1.198468,-1.124511 1.294256,-1.878986 0.08772,-0.69092 -0.437432,-1.337826 -0.811243,-1.925471 -0.793521,-1.247447 -1.759221,-1.407057 -2.132491,-2.877664 -0.09792,-0.385786 0.07492,-0.792504 0.112382,-1.188757 -0.743033,-0.258556 3.298829,-2.359237 2.52097,-1.70734 -1.544023,1.293989 -3.854102,1.796356 -4.925229,3.502554 -0.485224,0.772911 1.8319,-0.129019 2.737732,-0.0181 2.715498,0.332518 4.125888,1.161159 6.672397,2.236089 6.253953,3.413212 3.22345,1.509239 9.082164,5.726769 0,0 5.180388,-3.277362 5.180388,-3.277362 v 0 c -5.592077,-4.348586 -2.862051,-2.19769 -8.193085,-6.44887 -2.363163,-1.339995 -3.609816,-2.288921 -6.226012,-2.920359 -4.98953,-1.204259 -6.652043,1.388306 -12.28255,4.255579 -0.660191,0.336193 -1.325762,0.720603 -1.826096,1.266995 -0.37851,0.413353 -0.4825455,1.011769 -0.7238185,1.517652 0.3648813,1.873785 0.034449,1.242864 1.2688355,2.871364 0.24527,0.32358 1.661655,1.802276 1.64737,2.488555 -0.0267,1.282549 -2.107911,2.578237 -2.6770402,3.06896 -3.9254638,2.845453 -2.7616303,2.021517 -7.0189553,5.018037 -1.3425062,0.944925 -2.70433819,1.862704 -4.0324192,2.827795 -2.2183867,1.612064 -4.3345843,3.354345 -6.5126088,5.018543 0,0 8.9607839,-3.596034 8.9607839,-3.596034 z"
     id="path24"
     style="fill:#0000ff;stroke-width:0.264583" />
  <path
     d="m 12.313753,95.693353 c 0.03654,-0.168513 0.05606,-0.34164 0.109615,-0.505545 0.253412,-0.775549 0.669421,-1.624962 1.08945,-2.298459 0.93093,-1.49271 1.816049,-2.602029 3.124035,-3.819847 0.757036,-0.70485 1.600208,-1.311106 2.400312,-1.966659 1.382836,-1.026533 3.393533,-2.411322 4.597125,-3.701444 0.5358,-0.574323 1.047308,-1.194282 1.39687,-1.897655 0.314389,-0.632595 0.506383,-1.339186 0.56177,-2.043425 0.111748,-1.42086 -0.469682,-3.121781 -0.825189,-4.451342 -0.230248,-0.732843 -0.478594,-1.460243 -0.690743,-2.198529 -0.199342,-0.693716 -0.426508,-1.383821 -0.543331,-2.096092 -0.22332,-1.36158 -0.201272,-2.510618 0.210097,-3.82913 0.42341,-1.3571 0.868232,-1.766792 1.689069,-2.870763 0.674755,-0.747742 1.478308,-1.36334 2.180541,-2.082345 0.591778,-0.605914 1.082921,-1.109543 1.325928,-1.939224 0.220318,-0.75221 0.06149,-1.197321 -0.06117,-1.936096 -0.350782,-1.105623 -0.46051,-2.242352 -0.328284,-3.395755 0.144507,-1.260536 0.317074,-1.460371 0.606366,-2.718978 0.120807,-0.525571 0.211897,-1.057531 0.317844,-1.586298 0.04251,-0.561885 0.152461,-1.122717 0.127524,-1.685658 -0.02704,-0.610344 -0.159035,-1.212586 -0.282421,-1.810938 -0.126161,-0.611809 -0.310232,-1.210233 -0.465349,-1.815349 -0.158491,-0.637645 -0.343588,-1.269261 -0.475473,-1.91294 -0.395827,-1.931884 -0.319561,-2.000755 -0.404442,-3.975579 0.0616,-0.65918 0.06636,-1.326165 0.184791,-1.977538 0.132365,-0.727993 0.340989,-1.441479 0.565089,-2.146657 0.707398,-2.225977 1.219517,-3.215116 2.181931,-5.395672 0,0 -7.000649,3.193386 -7.000649,3.193386 v 0 c -0.474708,0.985383 -0.966539,1.962698 -1.424126,2.95615 -0.745813,1.619205 -1.608203,3.416414 -1.934428,5.202714 -0.122726,0.672002 -0.07001,1.36444 -0.105011,2.04666 0.03084,0.709258 0.02043,1.421514 0.09253,2.127772 0.08015,0.785135 0.554983,3.204874 0.712724,3.981722 0.118806,0.585097 0.287618,1.160899 0.373645,1.751706 0.2356,1.618014 0.12594,1.688137 -0.05764,3.269432 -0.137051,0.532508 -0.271699,1.065644 -0.411151,1.597528 -0.131746,0.502491 -0.290753,0.998244 -0.402438,1.505572 -0.105098,0.477406 -0.192773,0.959728 -0.247229,1.445521 -0.137646,1.227903 -0.02992,2.451264 0.115459,3.671721 0.02809,0.581419 0.10793,0.854599 -0.116891,1.405525 -0.249024,0.610232 -0.694066,1.072139 -1.132821,1.548527 -1.959986,2.128105 0.0223,-0.186174 -1.970795,2.200172 -0.729498,1.277162 -1.077417,1.648708 -1.359881,3.147504 -0.258768,1.373058 -0.176953,2.685378 0.111815,4.047059 0.305817,1.44208 0.96679,2.793518 1.272449,4.235442 0.314477,1.541222 0.673134,2.572758 0.442721,4.153998 -0.08649,0.593553 -0.270299,1.181722 -0.544956,1.714968 -0.304334,0.590865 -0.721362,1.124172 -1.169973,1.61457 -1.098222,1.200515 -2.978922,2.554758 -4.218213,3.513841 -0.8642,0.71692 -1.76898,1.387567 -2.5925991,2.150763 -0.7434165,0.688877 -1.4324145,1.436212 -2.100684,2.198206 -0.583611,0.665462 -1.1235846,1.368875 -1.6510277,2.079683 -0.806309,1.086618 -1.5239394,2.235447 -2.0832879,3.46814 0,0 8.8105017,-4.170365 8.8105027,-4.170365 z"
     id="path28"
     style="fill:#000080;stroke-width:0.264583" />
  <path
     d="m 63.2648,31.492044 c -0.452712,0.849445 -1.096586,2.076318 -1.552741,2.797172 -1.758008,2.778152 -3.831405,5.365676 -6.02488,7.809244 -0.734862,0.818649 -1.508705,1.601451 -2.263055,2.402175 -0.280575,0.277435 -3.371001,3.305154 -3.773673,3.801161 -0.4045,0.498255 -0.804116,1.023591 -1.039305,1.620718 -0.490349,1.24497 -0.187081,2.154915 0.01349,3.404404 0.09948,0.619707 0.206026,1.238258 0.309039,1.857386 -0.135136,0.722812 -0.155112,1.477007 -0.405405,2.168435 -0.661054,1.826133 -1.817423,3.290382 -3.211523,4.615161 -1.446702,1.37477 -3.378293,2.625175 -5.080172,3.650367 -0.772253,0.465195 -1.573774,0.879972 -2.36066,1.319958 -1.289913,1.121445 -2.045415,1.48122 -2.686389,3.084735 -0.218832,0.547455 -0.297802,1.146842 -0.346848,1.734367 -0.14298,1.712754 0.360151,3.380883 0.802273,5.007539 0,0 7.727344,-4.198967 7.727344,-4.198967 v 0 c -0.137007,-0.505023 -0.302292,-1.003218 -0.411023,-1.515075 -0.212397,-0.999898 -0.358777,-2.07042 -0.203679,-3.09462 0.161912,-1.069186 0.543013,-1.927436 1.281952,-2.72855 0.424114,-0.459801 0.956341,-0.806582 1.434512,-1.209871 0.682027,-0.416623 1.377971,-0.811273 2.046079,-1.249867 3.47822,-2.28336 6.876227,-4.970217 8.412583,-8.993656 0.315902,-0.827294 0.406924,-1.723737 0.610386,-2.585604 -0.05209,-0.637616 -0.117227,-1.274302 -0.156287,-1.91285 -0.05898,-0.964337 -0.170053,-1.943444 0.193519,-2.875526 0.186028,-0.476917 0.469529,-0.914524 0.771482,-1.327904 0.49471,-0.677267 2.70174,-3.060517 3.128585,-3.529168 0.712917,-0.794671 1.440563,-1.576369 2.138751,-2.38401 1.583682,-1.831959 2.904172,-3.511031 4.417658,-5.405985 0.720259,-0.901803 1.427213,-1.814319 2.157436,-2.708071 0.616326,-0.754351 1.25231,-1.492433 1.881846,-2.235793 0.315998,-0.373131 0.636487,-0.742434 0.954731,-1.11365 0,0 -8.766022,3.796345 -8.766022,3.796345 z"
     id="path30"
     style="fill:#000080;stroke-width:0.264583" />
  <path
     d="m 91.1476,48.180288 c 0.174736,0.238342 0.386437,0.453573 0.524206,0.715032 0.488817,0.927692 0.738782,1.858917 0.713536,2.925997 -0.01564,0.661104 -0.0044,1.36891 -0.298249,1.961325 -0.898091,1.810557 -2.537153,2.296329 -4.193013,3.187533 0.922096,-0.813244 3.550724,-1.493004 2.766292,-2.439733 -0.887936,-1.071645 -2.717599,0.606848 -4.089079,0.843267 -0.197075,0.03397 -6.736988,0.907687 -7.234878,1.009332 -0.922245,0.188275 -1.885532,0.324205 -2.719329,0.760971 -3.105653,1.626825 -6.019787,3.595653 -9.029679,5.393481 -0.555787,0.857501 -1.145109,1.69418 -1.667362,2.572509 -2.111695,3.551452 -1.163026,2.525712 -3.482194,6.051383 -1.343168,2.041925 -2.449492,3.401536 -4.040392,5.221666 -0.577117,0.660273 -1.185992,1.292101 -1.778986,1.93815 -1.021498,1.336659 -1.52072,1.666467 -1.898595,3.281275 -0.118602,0.506828 -0.114138,1.036502 -0.119298,1.556996 -0.0058,0.581948 0.193823,2.063454 0.09327,2.68954 -0.05496,0.34222 -0.240937,0.649994 -0.361408,0.974989 -3.562069,2.47292 3.649285,-1.962298 5.284349,-3.219725 0.515268,-0.396261 -1.246452,0.369411 -1.869678,0.554117 0,0 -6.838987,5.218464 -6.838987,5.218464 v 0 c 0.60099,-0.108143 1.2559,-0.05314 1.802971,-0.324426 8.908293,-4.417605 7.24948,-2.329323 9.875623,-6.188335 0.05284,-0.385355 0.147452,-0.767259 0.15852,-1.156059 0.02397,-0.842413 -0.222001,-1.67852 -0.161928,-2.523064 0.02827,-0.969116 0.175578,-1.736183 0.629984,-2.60716 0.268483,-0.514611 0.637304,-0.970303 0.955955,-1.455454 1.128308,-1.446686 2.066388,-2.618769 3.139205,-4.140832 0.652393,-0.925589 1.287311,-1.86385 1.900457,-2.815892 0.412787,-0.640937 3.338753,-5.470594 3.807962,-6.117325 0.631389,-0.870265 1.386372,-1.643782 2.079557,-2.465673 -1.55823,0.788892 -3.274939,1.322101 -4.674685,2.366679 -0.83893,0.62606 1.938478,-0.806484 2.949167,-1.078995 2.058329,-0.554979 5.5195,-0.932103 7.573058,-1.247634 7.365987,-1.13179 3.585564,-0.471075 14.093034,-5.400117 0.986824,-0.621586 2.091885,-1.086456 2.960467,-1.864757 0.703075,-0.629997 1.280576,-1.426877 1.671802,-2.286032 0.311346,-0.683733 0.319812,-1.472652 0.380735,-2.221462 0.1246,-1.531306 -0.15521,-3.023302 -0.540099,-4.493051 0,0 -8.362312,4.82302 -8.362311,4.82302 z"
     id="path32"
     style="fill:#000080;stroke-width:0.264583" />
  <path
     d="m 101.39284,98.175052 c 0.2645,-0.833858 0.32143,-0.917593 0.4387,-2.01726 0.0723,-0.678315 0.27537,-1.377667 0.12366,-2.042739 -0.22726,-0.996228 -0.71853,-1.923296 -1.23016,-2.807804 -1.39918,-2.418913 -2.977234,-3.943461 -4.839986,-6.016482 -2.775476,-2.927979 -5.85393,-5.646351 -8.164975,-8.984752 -1.193956,-1.724716 -2.110454,-3.380195 -2.437204,-5.468998 -0.122039,-0.780159 2.06e-4,-1.57929 2.64e-4,-2.368937 0.164529,-0.714343 0.292315,-1.438156 0.493586,-2.143029 0.19621,-0.687152 0.482589,-1.345682 0.697219,-2.027304 0.489683,-1.555128 0.861026,-2.645423 0.758696,-4.315195 C 87.111381,58.003929 86.41459,56.292045 85.813624,54.42632 84.070533,49.598479 82.236716,44.799331 80.716722,39.894322 80.486344,39.150895 80.2734,38.402177 80.05174,37.656105 c -0.148717,-0.661664 -0.297434,-1.323329 -0.446149,-1.984991 0,0 -7.472963,4.072213 -7.472963,4.072213 v 0 c 0.219578,0.633706 0.439156,1.267412 0.658733,1.901115 0.256554,0.742247 0.484177,1.495134 0.769663,2.226739 0.303024,0.77656 1.852435,4.196067 2.126625,4.844293 1.295736,3.063328 2.465224,6.185996 3.299974,9.409854 0.435488,2.202404 0.81177,3.377038 0.744709,5.581313 -0.02201,0.723432 -0.143306,1.443093 -0.289922,2.151854 -0.142267,0.687716 -0.382022,1.351605 -0.574533,2.026983 -0.816006,2.862758 -0.505883,1.349614 -0.893294,4.371126 0.112811,0.818936 0.09726,1.666095 0.338434,2.456802 0.607065,1.990328 1.912887,3.744285 3.195455,5.326687 2.550901,3.147242 5.621909,5.854051 8.254124,8.930251 0.803458,1.024546 1.693423,1.986796 2.41037,3.073638 1.129432,1.712142 2.172994,3.666487 2.170173,5.796388 -0.0016,1.163738 -0.729183,2.57108 -1.388184,3.50218 -0.157644,0.22273 -0.391284,0.38045 -0.586925,0.57068 0,0 9.02477,-3.738178 9.02477,-3.738178 z"
     id="path34"
     style="fill:#000080;stroke-width:0.264583" />
  <path
     d="m 98.041004,20.858701 c -0.0043,0.240344 0.04333,0.487335 -0.01296,0.721033 -0.246443,1.023022 -0.841383,2.120537 -1.619575,2.822079 -0.615797,0.55514 -2.773043,1.818736 -2.08566,1.355174 4.88252,-3.292704 5.983851,-3.24276 1.568103,-2.158289 -0.431565,0.05553 -4.174686,0.525353 -4.72273,0.639194 -0.677678,0.140768 -1.348693,0.32431 -1.999555,0.559769 -0.629692,0.2278 -1.246552,0.499564 -1.831197,0.826058 -6.698358,3.740702 -6.699755,3.771949 -10.854938,6.387075 1.678794,-0.973841 3.404536,-1.870908 5.036386,-2.921518 0.80083,-0.515586 -1.682441,0.894061 -2.537847,1.312918 -1.259567,0.616759 -3.038279,1.398508 -4.370027,1.92868 -0.53489,0.212939 -1.079302,0.401132 -1.618951,0.601697 0,0 -6.775238,5.318934 -6.775238,5.318934 v 0 c 0.622956,-0.253619 1.250151,-0.497065 1.868863,-0.760859 1.169942,-0.498822 3.531703,-1.57389 4.642567,-2.090285 0.795575,-0.36983 1.61222,-0.699477 2.379469,-1.124966 3.095755,-1.716784 6.135693,-3.532344 9.203539,-5.298514 2.645609,-1.620568 5.544921,-3.365925 -3.619233,1.955477 -0.590282,0.342762 1.182902,-0.686845 1.806869,-0.963584 0.661215,-0.293259 1.341242,-0.551992 2.039123,-0.742177 1.407004,-0.383434 3.604477,-0.621805 5.015275,-0.809048 5.997866,-1.186971 3.095958,-0.330944 12.252653,-5.608768 0.83611,-0.481925 1.62555,-1.062061 2.31915,-1.733076 0.98327,-0.951273 1.74035,-2.313577 2.26748,-3.569317 0.13708,-0.326571 0.20306,-0.678622 0.30459,-1.017933 0,0 -8.656151,4.370246 -8.656151,4.370246 z"
     id="path36"
     style="fill:#000080;stroke-width:0.264583" />
  <path
     d="m 57.407391,-0.70722185 c -0.33352,0.10952779 -0.671356,0.20669541 -1.000559,0.32858342 -0.64784,0.23986348 -1.289526,0.49624762 -1.929534,0.75628758 C 53.462136,0.79011684 52.440371,1.188154 51.441566,1.638787 46.65432,3.7986586 42.473821,6.1584739 37.932563,9.1117575 c -1.117748,0.7268972 -2.016276,1.7451605 -3.024415,2.6177405 -0.714623,0.990712 -1.569844,1.893853 -2.143868,2.972134 -1.077558,2.024148 -1.400694,4.039532 -1.368899,6.29656 0.02811,1.995227 0.519782,3.833584 0.922727,5.766878 0.178096,0.85449 0.351459,1.709962 0.527187,2.564945 0.157729,2.228601 0.324017,2.353696 -0.113929,4.504131 -0.132951,0.652823 -0.353812,1.284775 -0.547889,1.922103 -0.383053,1.257916 -0.773726,2.079337 -0.909812,3.391858 -0.0572,0.55173 -5.29e-4,1.109376 -5.29e-4,1.664065 0.280948,2.288868 1.241658,4.420457 1.625311,6.686917 0.19938,1.177857 0.15978,1.652784 0.168971,2.81341 0,0 7.986927,-4.135638 7.986927,-4.135638 v 0 c -0.128963,-1.045118 -0.199954,-1.807443 -0.432678,-2.852296 -0.483333,-2.169996 -1.40116,-4.251028 -1.491991,-6.500574 0.01579,-0.505047 -0.0051,-1.012582 0.04739,-1.515145 0.132072,-1.264589 0.4202,-1.988883 0.689038,-3.245659 0.139914,-0.654087 0.296402,-1.307431 0.36989,-1.972265 0.246277,-2.228067 0.07668,-2.357755 -0.251783,-4.605572 -0.215056,-0.831098 -0.440099,-1.659676 -0.64517,-2.493294 -0.444005,-1.804879 -0.92592,-3.605597 -0.960999,-5.482502 -0.03839,-2.053844 0.268963,-3.94119 1.248524,-5.77991 0.522378,-0.980551 1.301539,-1.8009521 1.95231,-2.7014282 0.971175,-0.8152092 2.490113,-1.2504414 2.913521,-2.4456273 0.320918,-0.9058743 -3.490175,1.4732905 -2.53419,1.3748623 1.185569,-0.1220663 2.159939,-1.0117489 3.268107,-1.4504265 1.428866,-0.5656286 2.925857,-0.9450147 4.407638,-1.3397889 0,0 7.773506,-5.87445725 7.773506,-5.87445725 z"
     id="path38"
     style="fill:#000080;stroke-width:0.264583" />
  <path
     d="M 96.344479,6.7463037 C 94.596242,7.2776293 92.767241,7.5163438 90.956539,7.7116955 89.602301,7.8578008 88.24751,8.0122891 86.887385,8.0855486 85.35662,8.1679991 83.821483,8.2302328 82.289371,8.1785284 80.610976,8.1218878 78.942228,7.9001399 77.268656,7.7609456 59.740963,4.6669203 84.074978,9.0347069 68.980441,6.1160524 66.580172,5.6519405 65.518892,5.3834807 63.142828,5.9881711 62.431466,6.1692077 57.494542,8.2187573 57.00287,8.419871 53.600701,9.3035936 53.198913,9.6255347 49.618002,9.6629769 47.095102,9.6893559 44.422623,9.289648 41.948525,8.8504299 40.776091,8.6422917 39.617663,8.3613971 38.448882,8.1336334 37.379518,7.9252433 36.305913,7.7392341 35.23443,7.5420343 c -3.13521,-0.071755 -3.310136,-0.2461614 -6.361123,0.341411 -0.906193,0.1745181 -1.786618,0.4632134 -2.679926,0.6948204 0,0 -6.285847,4.8445893 -6.285847,4.8445893 v 0 c 0.926477,-0.297758 1.835224,-0.657708 2.779432,-0.893275 3.003871,-0.749423 3.230145,-0.573015 6.335656,-0.621794 1.124503,0.150561 2.252551,0.276655 3.373506,0.451683 2.645595,0.413088 4.821653,0.928993 7.488441,1.261771 2.634218,0.328714 5.023638,0.522401 7.672168,0.203021 1.185352,-0.142939 2.336903,-0.490757 3.505353,-0.736135 1.017434,-0.388724 2.043041,-0.756697 3.052302,-1.166172 2.191049,-0.888947 3.178429,-1.625824 5.592342,-1.837561 1.143402,-0.1002942 2.298703,0.0047 3.4416,0.110633 1.079915,0.100058 8.015268,1.191052 8.833506,1.317601 1.589227,0.226417 3.170264,0.520592 4.767677,0.679251 1.403168,0.139367 2.81658,0.141724 4.224804,0.213907 1.12336,0.05758 2.245939,0.132152 3.369942,0.175386 1.416661,0.05449 2.839863,0.05373 4.257521,0.03723 0,0 7.742695,-5.8720923 7.742695,-5.8720923 z"
     id="path40"
     style="fill:#000080;stroke-width:0.264583" />
  <path
     d="m -2.6614771,16.571542 c 0.245615,0.845209 0.3512743,1.274469 0.7393597,2.176482 1.21523758,2.824531 2.81375902,5.463718 4.4117218,8.081676 0.7260292,1.189458 1.4682574,2.368954 2.2023862,3.553433 1.828818,3.355689 2.5523563,3.969806 3.1125628,7.807153 0.3640426,2.493648 0.015195,5.048038 -0.2611226,7.520183 -0.7066981,6.322666 -0.1370277,0.219234 -0.6437876,5.995069 -0.020307,0.810888 -0.088726,1.621997 -0.060924,2.432662 0.027738,0.808815 0.120863,1.614947 0.2272511,2.417217 0.2529565,1.907529 0.6167551,3.484827 1.0532811,5.364962 0.2368002,1.019907 0.5190601,2.029325 0.7369651,3.053437 0.2088029,0.981334 0.361777,1.97372 0.5426655,2.960579 0,0 6.905284,-3.694817 6.905284,-3.694817 v 0 C 16.087337,63.271497 15.844331,62.308911 15.65368,61.335334 15.448943,60.289831 15.294105,59.235165 15.118401,58.18439 14.961775,57.247707 14.78553,56.313895 14.656692,55.372986 c -0.33066,-2.414815 -0.43019,-4.850603 -0.591262,-7.279867 -0.01948,-4.363294 -0.04321,-0.929167 0.111743,-5.71009 0.03839,-1.184478 0.134028,-2.369788 0.09149,-3.554124 -0.0475,-1.322593 -0.118175,-2.652929 -0.361146,-3.95388 -0.756672,-4.051501 -1.26841,-4.391509 -3.140286,-7.993761 C 9.5190243,24.4727 8.3316674,22.341086 7.3305074,19.824533 6.4808364,17.688769 5.7787582,15.379377 5.8728159,13.052066 c 0.011666,-0.288669 0.091962,-0.570444 0.1379435,-0.855666 0,0 -8.6722365,4.375142 -8.6722365,4.375142 z"
     id="path42"
     style="fill:#000080;stroke-width:0.264583" />
  <path
     d="m -12.68535,72.55961 c 0.290213,-0.09562 0.567364,-0.249568 0.87064,-0.286842 0.62961,-0.07738 1.274914,-0.147834 1.9022744,-0.05395 2.844443,0.425678 5.4426447,2.213753 7.5604477,4.05489 0.6345368,0.551641 1.1898776,1.188263 1.78481646,1.782395 0.37184777,0.482857 0.73941973,0.969034 1.11554333,1.448565 0.59579501,0.759597 0.90983531,1.313045 1.82306541,1.717069 0.1390851,0.06153 3.3876618,0.960114 3.4203386,0.969216 0,0 7.1592661,-4.865095 7.1592661,-4.865095 v 0 C 12.403693,77.119699 11.857936,76.909265 11.308996,76.70738 10.771289,76.509625 9.5647628,76.124582 9.0187834,75.809516 8.273667,75.379537 6.902484,74.235478 6.3252709,73.776059 4.4813548,72.312944 3.7254095,71.701752 1.8028128,70.227025 0.99133873,69.604585 0.21139861,68.936602 -0.64359173,68.375429 -1.4639412,67.836994 -3.2519794,66.912764 -4.3220597,66.611801 c -0.1992545,-0.05604 -0.4139605,-0.0029 -0.6209408,-0.0044 0,0 -7.7423495,5.952175 -7.7423495,5.952175 z"
     id="path44"
     style="fill:#000080;stroke-width:0.264583" />
  <path
     d="m 35.672609,99.545073 c 0.171275,-0.239099 0.307686,-0.507508 0.513823,-0.717294 0.417288,-0.424667 0.863153,-0.82564 1.345391,-1.174805 0.724191,-0.524354 3.010638,-1.930231 2.263899,-1.438521 -1.205405,0.793734 -2.933528,1.086133 -3.640013,2.34466 -0.521713,0.929381 1.972596,-0.810233 2.97769,-1.164796 0.847029,-0.298804 1.716621,-0.529323 2.57493,-0.793985 0.705345,-0.17402 1.406911,-0.364131 2.116031,-0.52206 0.449292,-0.100063 3.083716,-0.591876 3.553508,-0.677175 1.714296,-0.311256 2.974165,-0.546955 4.741021,-0.736669 1.001189,-0.1075 2.007312,-0.162613 3.010966,-0.243919 3.641815,-0.227994 7.309723,-0.109617 10.935142,-0.580771 1.559973,-0.202734 2.020575,-0.342924 3.494802,-0.681673 1.045099,-0.168116 2.06869,-0.795993 3.161083,-0.627017 0.769106,0.118967 1.164415,0.433065 1.818756,0.814332 0,0 7.703476,-4.970248 7.703476,-4.970248 v 0 c -0.849307,-0.551683 -2.111658,-1.481204 -3.186398,-1.413034 -0.907611,0.05757 -1.666849,0.869709 -2.580563,0.885632 -1.564254,0.483772 -2.112791,0.692293 -3.774427,1.031232 -3.689649,0.752618 -7.463211,0.853768 -11.216389,0.875014 -2.069488,0.03621 -3.198725,0.01627 -5.214604,0.19299 -2.823096,0.247491 -5.5827,0.96031 -8.284352,1.788393 -1.187583,0.39189 -4.839365,1.55453 -5.889152,2.083485 -3.261656,1.643441 -6.441649,3.445518 -9.622057,5.241152 -1.873258,1.057634 -3.147996,1.963294 -4.742103,3.338964 -0.316828,0.27342 -0.58923,0.59444 -0.883843,0.89165 0,0 8.823383,-3.745537 8.823383,-3.745537 z"
     id="path46"
     style="fill:#000080;stroke-width:0.264583" />
  <circle
     r="0.087406993"
     cy="67.460312"
     cx="-27.976189"
     style="fill:#0000ff;stroke:#000000;stroke-width:0.264583"
     id="path48" />
  <path
     d="m -6.4561746,90.38456 c 0.4413142,0.481685 0.6753548,0.723749 1.1148269,1.283769 0.2957788,0.37691 0.5629286,0.775719 0.8588346,1.15253 0.4004024,0.509879 0.8225914,1.002284 1.2295971,1.506908 0.4220844,0.52332 0.8197313,1.066713 1.2576347,1.576869 0.403869,0.470503 0.8439332,0.90869 1.26589983,1.363036 1.24322344,0.835689 1.37330932,1.154152 2.91425737,1.283454 1.1216196,0.09412 2.5781342,-0.248568 3.6662392,-0.370018 2.0702119,-0.231065 1.6338936,-0.171135 3.6384849,0.0289 1.481541,0.553633 1.539245,0.443738 2.774231,1.4067 0.353855,0.275913 0.664653,0.603142 0.989046,0.913162 0.281195,0.26873 0.529397,0.57284 0.827405,0.8228 0.912582,0.76545 1.14066,0.7566 2.280493,1.24759 2.528622,0.81654 2.657394,0.78522 5.232733,1.95422 0.953857,0.43297 1.880335,0.92389 2.820502,1.38583 0,0 6.4729,-4.24968 6.4729,-4.24968 v 0 C 28.498215,100.41401 26.093105,99.155428 23.84972,97.629333 23.092764,97.270822 22.486607,97.02355 21.797958,96.553518 21.461335,96.323759 21.152302,96.055956 20.832171,95.803726 20.442594,95.49678 20.070195,95.167461 19.668879,94.876033 18.095494,93.73347 18.38035,93.980347 16.543967,93.21544 14.511541,92.921638 14.816151,92.849264 12.756999,93.01837 12.163284,93.06713 11.575225,93.169736 10.984357,93.245557 10.059331,93.36426 8.9684107,93.600186 8.0253604,93.365284 7.5364146,93.243491 7.1054819,92.953667 6.6455429,92.747858 6.2089162,92.344376 5.7328934,91.979733 5.3356626,91.53741 4.3892004,90.483514 3.8907201,89.579359 3.2356306,88.341037 2.7678978,87.456879 2.3284542,86.53333 2.0588176,85.566678 c 0,0 -8.5149922,4.817882 -8.5149922,4.817882 z"
     id="path50"
     style="fill:#0000ff;stroke-width:0.264583" />
  <path
     d="m 60.732402,100.91521 c -1.313654,-0.947661 -2.576333,-1.989342 -3.650094,-3.208171 -0.264781,-0.300551 -0.592664,-0.572373 -0.745019,-0.942817 -0.113236,-0.275328 -0.0067,-0.59537 -0.01003,-0.893056 2.656702,-3.020538 -3.807818,1.20463 -4.801934,2.760406 -0.638122,0.998646 2.318372,-0.533992 3.499996,-0.624872 1.462802,-0.112508 2.936041,-0.05607 4.401335,0.01717 3.653954,0.182618 5.43645,0.551511 8.990555,1.106278 1.097561,0.233164 2.200852,0.440809 3.292679,0.699495 0.753509,0.178537 1.496917,0.397707 2.24115,0.611637 0.409136,0.11761 0.808506,0.26784 1.218383,0.38283 0.202769,0.0569 0.431668,0.23089 0.617781,0.13233 8.56157,-4.533918 7.684087,-1.830853 8.688879,-5.589135 3.426045,-1.339382 -2.274604,0.837708 -5.69759,3.707463 -0.521885,0.437539 1.34071,-0.279905 2.021554,-0.295896 0.838523,-0.01971 1.681533,0.05307 2.509123,0.189473 2.353308,0.387892 3.395081,0.909561 5.627669,1.750875 0,0 6.494492,-4.347506 6.494492,-4.347506 v 0 C 92.933222,95.291923 90.420982,94.10443 87.6967,93.709407 c -4.545052,-0.65904 -8.805235,2.383169 -11.916203,5.581515 -2.356647,2.514148 -0.819833,0.800938 7.519185,-3.956616 0.281244,-0.160454 -0.586758,0.29767 -0.906415,0.34929 -0.589068,0.09513 -1.191577,0.10255 -1.788043,0.08583 -1.295398,-0.03632 -5.606669,-0.489964 -6.587607,-0.586759 -5.918673,-0.787612 -2.950583,-0.374743 -8.90416,-1.239406 -0.328028,-0.04385 -6.150523,-0.877721 -6.985016,-0.524304 -9.283811,3.931783 -8.317878,2.133058 -9.888548,6.736893 0.113287,0.42678 0.128919,0.89243 0.339863,1.28035 0.203523,0.37427 0.572198,0.63148 0.867008,0.93902 1.050374,1.09576 2.244772,2.12971 2.877148,3.5439 0,0 8.408492,-5.00389 8.408492,-5.00389 z"
     id="path52"
     style="fill:#0000ff;stroke-width:0.264583" />
  <path
     d="m 71.629526,71.178996 c 0.22502,-0.07958 0.444598,-0.176668 0.675063,-0.238747 0.435766,-0.117382 0.873593,-0.236069 1.320512,-0.298802 1.981895,-0.278196 3.625569,-0.274127 5.669023,-0.103732 3.499543,0.291806 4.701198,0.653034 8.147171,1.370364 4.127141,1.17244 2.787092,0.733642 6.502906,1.989945 0.876861,0.296463 2.715246,1.069027 3.80043,1.040585 0.443714,-0.01164 0.906978,-0.119648 1.283472,-0.354738 2.914457,-1.81983 5.691187,-3.851457 8.536777,-5.777187 0.20927,-0.61395 0.44998,-1.218071 0.62782,-1.841855 0.20121,-0.705765 0.34976,-1.425631 0.50803,-2.142252 0.23567,-1.067049 0.61097,-2.988871 0.80024,-4.097919 0.1986,-1.16372 0.25806,-1.695038 0.40267,-2.808436 0.0258,-0.281914 0.0517,-0.56383 0.0775,-0.845746 0,0 -8.35418,4.287811 -8.35418,4.287811 v 0 c 0.0408,0.22434 0.0816,0.448683 0.12241,0.673023 0.0233,0.347372 0.0654,0.693989 0.0699,1.042112 0.0314,2.441258 -0.43652,5.216671 -1.40303,7.456741 -0.26161,0.606336 -0.629846,1.160876 -0.944769,1.741311 2.185429,-1.088081 4.334129,-2.253295 6.556289,-3.264247 0.45174,-0.205512 -0.7564,0.688671 -1.22886,0.840584 -1.43715,0.462092 -3.14888,-0.02154 -4.51675,-0.299768 -2.224512,-0.452461 -4.880042,-1.118319 -7.061852,-1.645769 -1.38534,-0.33755 -6.127713,-1.499349 -7.618362,-1.839111 -2.038424,-0.464613 -4.122738,-0.985514 -6.232753,-0.852892 0,0 -7.739657,5.968725 -7.739657,5.968725 z"
     id="path54"
     style="fill:#0000ff;stroke-width:0.264583" />
  <path
     d="m 102.8045,81.259647 c -0.26493,-0.197712 -0.54548,-0.376049 -0.79478,-0.59314 -0.43939,-0.382633 -0.87726,-0.770906 -1.26797,-1.203129 -1.776041,-1.964703 -3.157327,-4.319895 -3.927902,-6.861942 -0.295535,-0.974942 -0.41996,-1.993752 -0.629941,-2.990628 0.180017,-1.053402 0.212526,-2.142958 0.540048,-3.160202 0.683237,-2.122032 2.04683,-4.041746 3.389105,-5.777632 0.80144,-1.036444 2.70987,-3.012625 3.41161,-4.243599 0.32782,-0.575056 0.47002,-1.237623 0.70503,-1.856436 -0.13515,-0.678161 -0.11575,-1.406591 -0.40543,-2.034484 -0.2812,-0.609481 -3.44757,-4.93037 -3.68518,-5.304822 -1.204845,-1.898716 -2.163401,-3.58476 -2.570272,-5.813618 -0.14187,-0.777177 -0.03865,-1.579565 -0.05798,-2.369346 0.701829,-1.718977 0.529405,-1.868557 1.911493,-3.103645 0.455165,-0.406757 2.022779,-1.36185 1.488069,-1.067382 -12.46991,6.867197 -6.007195,3.380155 -4.015459,2.667071 0.5802,-0.207724 1.18305,-0.345699 1.774574,-0.518548 2.364585,-0.467607 1.215027,-0.283808 3.446005,-0.567788 0,0 6.99956,-5.23317 6.99956,-5.23317 v 0 c -2.36273,0.34763 -1.16054,0.162822 -3.6063,0.556191 -0.61035,0.145423 -1.22976,0.256963 -1.83102,0.436271 -3.849055,1.147877 -7.74287,3.985618 -10.750399,5.864352 -0.94837,0.592426 -2.036699,1.789917 -2.426523,2.864917 -0.223782,0.617106 -0.205346,1.296699 -0.308018,1.945047 0.175403,0.778483 0.266097,1.581033 0.526212,2.33545 0.651825,1.890501 1.953826,4.090006 2.901717,5.803175 1.199544,2.167996 1.981126,3.177977 2.592951,5.529221 0.141809,0.54497 0.105947,1.121238 0.158919,1.681858 -0.164616,0.504417 -0.259744,1.037092 -0.493852,1.513255 -0.60106,1.222529 -2.021843,2.91411 -2.734239,3.961919 -1.26873,1.866079 -2.567493,3.86421 -3.219908,6.056338 -0.335894,1.12861 -0.376211,2.324825 -0.564314,3.48724 0.206547,1.044287 0.345488,2.10425 0.619644,3.13286 0.508688,1.908543 1.281001,3.699669 2.151745,5.464268 0.744641,1.509043 1.650569,2.934636 2.406592,4.437933 0,0 8.266213,-5.037855 8.266213,-5.037855 z"
     id="path56"
     style="fill:#0000ff;stroke-width:0.264583" />
  <path
     d="m 104.96934,-7.4347693 c -0.20701,0.033084 -0.42477,0.025548 -0.62102,0.099252 -0.51822,0.1946228 -1.02396,0.4276559 -1.50611,0.6996192 -3.097763,1.7473737 -6.177452,3.5276499 -9.228442,5.3554725 -1.467887,0.87939882 -2.661957,1.8053313 -3.720476,3.1803467 -0.538689,0.6997578 -0.911693,1.512681 -1.367541,2.2690216 -0.21287,0.8668721 -0.522523,1.7155713 -0.638614,2.600616 -0.239493,1.8258261 -5.29e-4,3.5691733 0.273436,5.3688713 0.333198,2.18967 0.86441,4.337272 1.403998,6.482415 0.199959,0.567011 0.357249,1.150928 0.599882,1.701032 0.519838,1.178593 1.266852,2.348574 2.072185,3.348274 0.833496,1.034659 2.127282,2.28034 3.037623,3.24376 0.485555,0.513869 0.956829,1.041048 1.435243,1.561571 0.397476,0.519168 0.854599,0.997691 1.192429,1.557507 0.608944,1.00907 0.963721,2.021903 0.926807,3.208377 -0.04303,1.382969 -0.825905,2.534878 -1.521664,3.6611 -0.201292,0.324882 -0.402585,0.649764 -0.603877,0.974646 0,0 8.357181,-3.72677 8.357181,-3.72677 v 0 c 0.16269,-0.31424 0.32538,-0.628478 0.48807,-0.942718 0.41323,-0.871705 0.80882,-1.555891 0.96193,-2.535177 0.0801,-0.512289 0.10726,-1.040059 0.0455,-1.554874 -0.14197,-1.182555 -0.68739,-2.478373 -1.3366,-3.457737 -0.37557,-0.566547 -0.87029,-1.044358 -1.30544,-1.566537 -0.49289,-0.517053 -0.98431,-1.035502 -1.47866,-1.551157 -1.2229,-1.275609 -1.7952,-1.769788 -2.837947,-3.193009 C 98.504935,17.858341 97.73342,16.221619 97.11601,14.487059 96.906185,13.908356 96.682596,13.334462 96.48654,12.750952 95.732424,10.50653 95.105113,8.2045867 95.057898,5.8180319 c -0.01675,-0.8466855 0.0044,-1.7027152 0.157118,-2.53569 0.150045,-0.8186352 0.49631,-1.5888319 0.744463,-2.38324785 1.433571,-2.11382045 1.286917,-2.26037815 3.39644,-3.85131535 0.689241,-0.5198044 2.949951,-1.7926794 2.192781,-1.3780331 -1.930253,1.0570438 -3.809731,2.2042658 -5.714483,3.3065895 -0.300558,0.17394006 0.591892,-0.3649524 0.901896,-0.5214384 0.117618,-0.059371 0.250338,-0.082252 0.375507,-0.1233777 0,0 7.85772,-5.7662883 7.85772,-5.7662883 z"
     id="path58"
     style="fill:#0000ff;stroke-width:0.264583" />
  <path
     d="m 78.696031,-9.8901992 c -3.288639,0.871874 -6.642299,1.4738066 -9.907323,2.4424121 -1.171795,0.3476262 -2.343603,0.7041343 -3.482713,1.1472775 -1.065099,0.4143497 -2.080041,0.9475793 -3.120062,1.4213689 -7.453318,4.56338709 -7.090048,3.6171444 -11.231687,7.455484 -0.575003,0.532895 -1.094007,1.1250015 -1.678707,1.6472382 C 48.797704,4.6503682 47.244248,5.7843745 47.770933,5.419581 53.996214,1.1078207 55.032494,1.6763946 50.205346,1.6104077 46.702368,1.1545853 43.248471,0.40773188 39.809552,-0.38571524 39.436709,-0.47173962 34.737426,-1.5981149 34.107845,-1.726415 c -0.724096,-0.1475603 -1.457061,-0.2476396 -2.185591,-0.3714593 -2.472547,-0.052424 -1.301157,-0.098869 -3.515561,0.09816 0,0 -7.01202,5.2603831 -7.01202,5.2603831 v 0 c 2.374229,-0.5090607 1.12439,-0.3123743 3.755315,-0.5519399 0.805283,0.046826 1.61324,0.059898 2.415851,0.1404789 0.959059,0.096288 1.913581,0.2368579 2.86526,0.389736 2.217833,0.3562729 4.626052,0.8516311 6.804872,1.37458 1.143444,0.2744433 2.275554,0.5941407 3.414255,0.8876345 1.006078,0.2593102 2.013376,0.5138489 3.020065,0.7707733 5.882949,0.9761252 2.606476,0.9456703 12.125756,-4.1065844 0.415602,-0.2205759 2.404816,-2.42246436 2.618737,-2.63016039 0.597078,-0.57970411 2.677727,-1.77705291 1.851885,-1.67437731 -1.454824,0.1808758 -2.632966,1.29010955 -3.949451,1.93516431 1.045194,-0.51696653 2.057194,-1.10732441 3.135582,-1.55089961 1.086184,-0.4467796 2.212142,-0.795843 3.342751,-1.1138376 1.031886,-0.2902267 2.083298,-0.5103413 3.136731,-0.7085748 1.66215,-0.3127817 3.364092,-0.4923025 5.056505,-0.4773625 0,0 7.707244,-5.8354986 7.707244,-5.8354985 z"
     id="path60"
     style="fill:#0000ff;stroke-width:0.264583" />
  <path
     d="m -15.11731,12.883354 c 0.301513,-0.182576 0.596493,-0.376405 0.904539,-0.547729 0.805323,-0.447892 1.607457,-0.903448 2.434697,-1.309435 C -8.2529573,9.2961557 -4.5813747,7.8969935 -0.74079432,7.0450082 0.425774,6.7862195 1.61568,6.6469606 2.7939172,6.4479368 3.7993896,6.3705943 4.8028039,6.2587941 5.8103343,6.2159096 c 1.8726243,-0.079706 2.4674131,0.010414 4.2218417,0.1205124 1.111428,0.069747 1.760067,0.1514761 2.865925,0.023514 0.496588,-0.057461 0.983517,-0.1797138 1.475275,-0.2695705 0.528241,-0.166593 1.066376,-0.3045653 1.584722,-0.4997791 0.529988,-0.1995983 1.064004,-0.4018955 1.555683,-0.6829261 3.602595,-2.0591455 7.450631,-3.3025343 9.982515,-6.4822599 0.698021,-0.8766257 0.876403,-1.3253524 1.362506,-2.2726239 0.05331,-0.2563487 0.23653,-0.5186691 0.159928,-0.7690464 -0.09336,-0.3051596 -0.325409,-0.8562795 -0.618726,-0.730567 -7.829466,3.3556201 -6.875173,2.4175138 -9.569191,5.52940375 0,0 8.568659,-3.49926585 8.568659,-3.49926585 v 0 c 3.449986,-2.4932754 -1.143422,0.8842812 -6.950661,3.50951893 -0.182715,0.0825984 -3.71e-4,-0.40232622 0.02722,-0.60093445 0.01652,-0.1188607 0.0042,0.23996954 0.0063,0.3599543 C 20.087983,0.8144502 20.062337,1.0166707 19.350071,1.8022901 19.009564,2.1778651 17.775343,3.0509104 18.23446,2.8359375 20.348543,1.8460584 22.33565,0.60451348 24.366479,-0.54654751 24.839815,-0.81483167 23.407636,-0.0291758 22.908278,0.18684641 22.437447,0.39052828 21.943459,0.53584313 21.461049,0.71034147 20.997848,0.82363584 20.540166,0.96251513 20.071447,1.0502246 18.93149,1.2635401 18.106355,1.2737124 16.934142,1.3287558 16.209387,1.362788 15.483665,1.3774241 14.759471,1.4218232 11.853217,1.6000007 11.72953,1.6629213 8.6607122,2.0283703 7.4161292,2.2528055 6.1629289,2.4338197 4.9269634,2.7016757 2.3519431,3.2597291 0.01186812,3.9446805 -2.4760795,4.7948429 -3.4143902,5.115475 -4.3336799,5.489286 -5.2619515,5.8379169 -5.824934,6.049356 -6.3917845,6.2509278 -6.9498389,6.475051 -7.14455,6.5532502 -7.3291633,6.6545591 -7.5188256,6.744313 c 0,0 -7.5984844,6.139041 -7.5984844,6.139041 z"
     id="path62"
     style="fill:#0000ff;stroke-width:0.264583" />
  <path
     d="m -9.7029134,22.550975 c 1.8349558,1.305705 3.8429353,2.361825 5.4544438,3.973123 0.8168765,0.816769 1.5750879,1.70203 2.2240372,2.657679 0.6741284,0.992727 1.15067231,2.106128 1.72600844,3.159193 0.32139224,1.110803 0.83788204,2.182961 0.96417671,3.332409 0.25818377,2.349807 -0.43909232,4.568629 -1.2739178,6.711574 -0.41060255,1.053992 -0.95246585,2.052021 -1.43199465,3.076493 -0.4377797,0.935281 -0.9332532,1.845204 -1.3199237,2.802744 -0.336437,0.833144 -0.5636289,1.706341 -0.8454435,2.559511 -0.4437594,3.251954 -0.2778212,1.317691 -0.3390204,4.374065 -0.011999,0.599207 0.015296,1.201925 -0.054724,1.797148 -0.06142,0.522126 -0.1270842,1.058952 -0.3379034,1.540555 -0.4331782,0.98957 -1.5208641,1.98342 -2.230379,2.727232 -4.2664963,3.714941 1.2705972,-1.063162 -2.7306148,2.261201 -0.3693625,0.306879 -0.7174295,0.638524 -1.0761435,0.957786 0,0 8.3111712,-3.394273 8.3111712,-3.394273 v 0 c 0.3089996,-0.285134 0.614497,-0.574112 0.9269986,-0.855404 2.01039547,-1.809612 0.2984918,-0.186242 2.45763917,-2.285907 C 1.6499426,56.856658 2.5103174,56.06829 2.9707818,54.662815 3.1392563,54.148579 3.1221825,53.588909 3.1373058,53.047989 3.1535512,52.466943 3.089739,51.886416 3.0646423,51.305684 2.9519837,48.698792 2.9281093,50.082254 3.1470155,47.341059 3.9486586,44.26768 3.5217888,45.507536 4.8287312,42.314145 5.7474979,40.069224 6.7309451,38.177136 7.100145,35.734778 7.6454634,32.127348 7.1900298,32.034993 6.0953369,28.683394 5.5359051,27.576761 5.0362773,26.437806 4.4170409,25.363493 3.9209249,24.502781 1.5389778,20.989232 0.80425297,20.051383 0.45201048,19.601759 0.01896723,19.221401 -0.35792846,18.792231 -1.0075554,18.052504 -0.8972774,18.196021 -1.2420626,17.567312 c 0,0 -8.4608508,4.983663 -8.4608508,4.983663 z"
     id="path64"
     style="fill:#000080;stroke-width:0.264583" />
  <path
     d="m 14.554666,100.44776 c 0.09621,-0.838113 0.05783,-0.899422 0.635236,-1.942444 0.890339,-1.608315 2.203974,-3.343434 3.638181,-4.483762 0.936726,-0.744783 3.104161,-3.071939 3.06106,-1.875988 -0.04659,1.292828 -2.052409,1.575406 -3.078614,2.36311 2.983718,-0.465796 2.740229,-0.647229 5.673821,-0.279284 0.813517,0.102037 4.027295,0.813978 4.884079,0.938761 2.319909,0.337878 2.942702,0.245163 5.37331,0.249518 4.648395,-0.138116 2.31716,-0.09197 6.993723,-0.137661 0,0 6.06331,-4.406193 6.06331,-4.406193 v 0 c -4.488582,-0.03574 -2.288225,0.0092 -6.601195,-0.128439 -1.697532,-0.06189 -3.419271,-0.08853 -5.109908,-0.284599 -1.040794,-0.120709 -4.195641,-0.676659 -5.164958,-0.842751 -3.350151,-0.395417 -2.800712,-0.236813 -6.238242,0.281495 -1.934513,0.985216 -9.74438,4.498721 -12.808935,7.013983 -1.613589,1.324369 -3.2562878,3.389524 -4.4885936,5.081834 -1.2900226,1.77158 -1.0860421,1.41091 -1.6323107,2.73271 0,0 8.8000363,-4.28029 8.8000363,-4.28029 z"
     id="path66"
     style="fill:#000080;stroke-width:0.264583" />
  <path
     d="m 112.58814,73.035463 c -0.62433,-0.307668 -1.2705,-0.574529 -1.87301,-0.923004 -1.50076,-0.867989 -4.30523,-2.824358 -5.58973,-3.789749 -1.69244,-1.271987 -4.62085,-3.613094 -6.071717,-5.180512 -0.854498,-0.923139 -1.544989,-1.985552 -2.317483,-2.97833 -0.453532,-0.992653 -1.063857,-1.92772 -1.360598,-2.977954 -0.628351,-2.223889 -0.06546,-4.758653 0.644205,-6.88498 0.175043,-0.52447 0.400663,-1.030681 0.600995,-1.546024 0,0 -7.963609,3.761656 -7.963609,3.761656 v 0 c -0.424434,1.874025 -0.879496,3.775704 -0.587417,5.717728 0.429948,2.858693 0.922102,3.074725 2.448224,5.644276 0.82051,1.007213 1.569678,2.077019 2.46153,3.021642 0.914249,0.968349 1.955517,1.808428 2.942672,2.702333 2.470287,2.236941 3.229287,2.80951 5.556418,5.083106 0.66561,0.650293 1.33615,1.29853 1.94784,1.999784 0.39307,0.450628 0.70622,0.965161 1.05933,1.447739 0,0 8.10235,-5.097711 8.10235,-5.097711 z"
     id="path68"
     style="fill:#000080;stroke-width:0.264583" />
  <path
     d="m 97.34507,18.632 c -1.542648,1.418507 -3.336763,2.53157 -4.937548,3.880707 -2.009963,1.693991 -3.244705,2.977105 -5.140124,4.833565 -0.653613,0.960482 -1.416621,1.855015 -1.960838,2.881447 -0.876421,1.652998 -1.367239,3.574878 -1.454218,5.440257 -0.03748,0.803717 0.05772,1.609585 0.145319,2.409394 0.151578,1.383964 0.482198,2.76057 0.775081,4.1187 0.303837,1.281025 0.40921,2.004062 0.947804,3.204138 0.22588,0.503298 0.467966,1.006203 0.789152,1.454719 0.394559,0.550979 0.896392,1.016611 1.344588,1.524918 0,0 7.356406,-4.391969 7.356406,-4.391969 v 0 c -0.354041,-0.504476 -0.73625,-0.990317 -1.062124,-1.51343 -0.840188,-1.348703 -1.340097,-2.858212 -1.837661,-4.355431 -0.174408,-0.605885 -0.373476,-1.205209 -0.523224,-1.817656 -0.349131,-1.427876 -0.604478,-2.78471 -0.58977,-4.265596 0.0077,-0.774851 0.04697,-1.558168 0.214328,-2.314768 0.578007,-2.612991 1.092907,-2.8838 2.623614,-5.16221 0.91068,-0.857419 1.78521,-1.754936 2.732042,-2.572257 1.92599,-1.662543 3.467453,-2.73752 5.515373,-4.150386 0.38624,-0.266463 2.77009,-1.871218 3.39733,-2.266701 0.25599,-0.161405 0.52333,-0.304062 0.78499,-0.456094 0,0 -9.12052,3.518653 -9.12052,3.518653 z"
     id="path70"
     style="fill:#000080;stroke-width:0.264583" />
  <path
     d="m 64.57112,16.214601 c 0.06709,-0.254147 0.09739,-0.520991 0.201276,-0.762442 0.894313,-2.078453 2.515637,-3.823185 4.317135,-5.157165 C 70.029204,9.5991803 72.991352,7.7226238 72.060654,8.4303993 71.122346,9.143962 70.064624,9.6850831 69.06661,10.312425 70.003719,9.8694056 70.933037,9.4095185 71.877938,8.9833668 73.207408,8.3837729 74.580672,7.8841797 75.90747,7.2786972 78.962577,5.8845052 85.430422,1.63377 85.812269,1.314012 86.22295,0.97010835 85.56268,0.27217846 85.437886,-0.24873831 84.914715,-0.68126554 84.439238,-1.1790294 83.868375,-1.54632 c -0.650798,-0.4187207 -1.375724,-0.709514 -2.072703,-1.0458007 -2.592261,-1.1913754 -1.337641,-0.5981894 -3.765891,-1.7752505 0,0 -7.105161,4.7131442 -7.105161,4.7131442 v 0 c 0.622806,0.2646935 1.247624,0.52469618 1.868416,0.7940805 1.334215,0.5789658 2.490714,1.0080978 3.650221,1.908319 0.362461,0.2814076 0.627525,0.6696879 0.94129,1.0045319 0.292129,3.1762591 -0.142733,0.6631085 6.694106,-2.9533334 0.532021,-0.28142045 -1.019019,0.6429092 -1.550805,0.9247737 -0.675492,0.3580323 -1.375389,0.6680846 -2.067417,0.9930038 -5.347385,2.5106921 0.283662,-0.2083268 -5.678837,2.700134 -0.64888,0.3648546 -10.101191,5.4341945 -12.869235,7.5026265 -2.233152,1.66873 -4.017243,3.804602 -5.578369,6.089772 -0.201306,0.294667 -0.371261,0.609568 -0.556892,0.914352 0,0 8.794022,-4.009432 8.794022,-4.009432 z"
     id="path72"
     style="fill:#000080;stroke-width:0.264583" />
  <path
     d="m 39.239975,-1.7600637 c 0.784114,0.5979095 1.791023,1.34450317 2.425499,1.99763275 2.1374,2.20023885 3.882374,4.95400485 4.486487,8.00212075 0.194733,0.9825508 0.126394,1.9993342 0.189592,2.9990002 -0.198789,0.914204 -0.303757,1.85398 -0.596368,2.74261 -0.598522,1.817651 -1.347933,2.77412 -2.350217,4.342903 -0.565158,0.884586 -1.549966,2.231641 -1.775984,3.326721 -0.12252,0.59363 -0.0145,1.212196 -0.02177,1.818294 0.221591,2.353518 0.120256,1.18436 0.304739,3.507413 0,0 7.72963,-4.015775 7.72963,-4.015775 v 0 c -0.180885,-2.286092 -0.104627,-1.149964 -0.229883,-3.408309 0.06209,-0.526793 0.05958,-1.065289 0.186264,-1.580378 0.257921,-1.048675 0.935207,-2.10833 1.419677,-3.039438 0.340636,-0.65467 0.715762,-1.293989 1.002425,-1.974025 1.083423,-2.570143 0.86877,-2.478058 1.234675,-5.3206861 -0.130905,-1.0298258 -0.15694,-2.0784939 -0.392713,-3.0894774 -0.520414,-2.2315041 -1.458,-4.08688475 -2.510689,-6.0985485 -0.449927,-0.8598004 -0.968042,-1.6825382 -1.424956,-2.5386449 -0.06977,-0.1307219 -1.025864,-2.0655523 -1.316159,-2.6526524 0,0 -8.360254,4.9812396 -8.360254,4.9812396 z"
     id="path74"
     style="fill:#000080;stroke-width:0.264583" />
  <path
     d="m 10.69381,-2.511882 c 0.0056,0.272145 -0.02451,0.5473817 0.01678,0.8164351 0.223292,1.45517425 0.599588,2.31390244 1.294712,3.7058302 1.527697,3.0590815 1.78112,3.0409792 3.781951,6.098393 0.743623,1.1363082 1.452815,2.2947797 2.179222,3.4421697 1.185903,2.275842 2.218916,3.781806 2.660097,6.321169 0.156246,0.899323 0.155372,1.82997 0.05968,2.737736 -0.227821,2.161115 -0.887262,3.330464 -1.71211,5.295624 0,0 7.238016,-3.357946 7.238016,-3.357946 v 0 c 0.58472,-1.653734 1.49004,-3.84305 1.555273,-5.622298 0.1232,-3.360327 -2.07831,-6.2116 -3.676314,-8.9342988 C 22.480487,5.3118953 21.498389,3.8962763 20.280406,1.0241037 19.43762,-0.96330041 18.551989,-3.5473073 19.158,-5.7457696 c 0.07278,-0.2640151 0.263475,-0.4801905 0.395212,-0.7202856 0,0 -8.859399,3.9541732 -8.859399,3.9541732 z"
     id="path76"
     style="fill:#000080;stroke-width:0.264583" />
  <path
     d="m -15.911007,5.8430998 c 0.947585,-0.09198 1.254222,-0.1395071 2.348427,-0.1302287 0.73597,0.00624 1.477589,-0.020399 2.206479,0.081623 1.073595,0.1502706 2.1485199,0.344911 3.1818728,0.6725827 1.0904509,0.3457768 2.1436711,0.8135876 3.1601254,1.3384352 0.9514411,0.4912778 1.8168987,1.1336907 2.7253479,1.7005358 1.83235199,1.3475822 3.3087072,2.8805662 4.5581202,4.7691602 0.4062569,0.614091 0.8887669,1.600688 1.3591289,2.185569 0.3035623,0.377471 0.6682018,0.701458 1.0023028,1.052188 0.689443,0.600657 2.2632212,1.948704 2.8231261,2.54781 1.0138743,1.084858 1.8094047,2.23713 2.5466769,3.52004 0.662311,1.152471 0.967597,1.938071 1.484259,3.129041 0,0 7.649564,-4.371901 7.649564,-4.371901 v 0 C 18.566593,21.41016 17.849806,20.224993 17.263301,19.33125 16.197919,17.707772 15.849506,17.250454 14.669607,15.685761 14.242142,15.118888 13.834368,14.53576 13.374975,13.994437 13.038242,13.597649 12.64857,13.249014 12.285368,12.876303 11.998221,12.538244 11.702968,12.206907 11.423928,11.862126 10.652861,10.909397 10.602884,10.692758 9.7086519,9.7783768 8.0452266,8.0774692 6.1129822,6.6594203 4.1268417,5.363697 1.222335,3.6135355 1.3267756,3.5873891 -1.7467605,2.0966918 -2.6281281,1.6692193 -3.5002364,1.2117549 -4.4225294,0.88172905 -5.5812787,0.46709165 -6.8506826,0.48542209 -8.0190826,0.10928098 c 0,0 -7.8919244,5.73381882 -7.8919244,5.73381882 z"
     id="path78"
     style="fill:#000080;stroke-width:0.264583" />
  <path
     d="m -11.135206,86.480834 c 0.109974,0.108876 0.228089,0.2101 0.329921,0.326626 1.2151116,1.390446 2.0166465,3.179381 2.9296971,4.768437 0.2956142,0.514479 0.6119942,1.016749 0.9179914,1.525124 0.3338333,0.422709 0.5411904,0.988407 1.0014998,1.268127 1.5424451,0.93731 3.5318719,0.709176 5.17858345,0.453366 2.30485715,-0.358047 6.17765825,-1.543058 8.29320695,-2.143331 0,0 5.4163623,-4.150014 5.4163623,-4.150014 v 0 C 11.140499,88.948389 7.6445067,89.829954 5.679804,90.075934 4.7088104,90.197502 2.6414722,90.367423 1.6072212,89.80599 1.1668248,89.566926 0.91128566,89.084829 0.56331791,88.724247 0.25295941,88.24515 -0.08789246,87.784479 -0.3677576,87.286953 c -0.61411593,-1.091737 -0.9856,-2.06185 -1.4082863,-3.232663 -0.155596,-0.43099 -0.2811265,-0.872408 -0.4352206,-1.303938 -0.1510289,-0.422944 -0.3281801,-0.828384 -0.5034957,-1.240189 0,0 -8.4204458,4.970671 -8.4204458,4.970671 z"
     id="path80"
     style="fill:#000080;stroke-width:0.264583" />
  <path
     d="m 40.074844,103.95373 c 0.0558,-0.20479 0.08843,-0.41736 0.167394,-0.61439 0.718439,-1.79269 1.915578,-3.26482 3.250398,-4.643381 1.758585,-1.816214 4.254199,-3.947192 6.123972,-5.597655 1.915866,-1.825524 4.211862,-3.713446 5.533443,-6.08811 0.581832,-1.045459 0.984755,-2.204649 1.207376,-3.380214 0.218008,-1.151215 0.06542,-2.342435 0.09813,-3.513656 0,0 -6.731667,3.394906 -6.731667,3.394906 v 0 c -0.06146,1.101027 0.03312,2.222005 -0.184398,3.30308 -0.215294,1.070022 -0.580512,2.124321 -1.100699,3.083856 -1.282515,2.365722 -3.21355,3.918754 -5.113025,5.756108 -1.160026,1.001877 -5.711584,4.915246 -6.853124,5.971076 -0.927875,0.85821 -1.856348,1.72049 -2.704954,2.65715 -0.473199,0.52231 -0.852816,1.12316 -1.248413,1.70645 -0.65922,0.97198 -0.740441,1.20353 -1.197829,2.13865 0,0 8.753395,-4.17387 8.753395,-4.17387 z"
     id="path82"
     style="fill:#000080;stroke-width:0.264583" />
  <path
     d="m 95.374993,2.9727649 c -0.08889,0.098563 -0.171402,0.2032688 -0.266657,0.2956899 -0.493409,0.4787198 -1.107702,0.969396 -1.623732,1.394085 -1.056066,0.8691332 -2.228006,1.7794928 -3.194521,2.7421766 -0.581832,0.5795224 -1.103535,1.2164303 -1.655302,1.8246452 -1.438855,2.3430584 -1.361753,1.8654894 -2.130079,4.5303724 -0.219329,0.760726 -0.349726,1.544435 -0.540242,2.312884 -0.173686,0.700566 -0.314153,1.412345 -0.552251,2.093718 -0.596223,1.706229 -0.950468,2.047463 -1.92849,3.532057 0,0 7.787788,-3.444081 7.787788,-3.444081 v 0 c 0.919408,-1.623433 1.207095,-1.917959 1.74267,-3.738461 0.506333,-1.721113 0.387432,-2.485962 0.928653,-4.220935 0.713605,-2.2875785 0.909299,-2.2583828 2.254454,-4.2224796 0.581009,-0.5887535 1.131633,-1.2091281 1.74303,-1.7662604 1.161388,-1.0583098 2.494816,-1.9978276 3.760956,-2.9237847 0.46675,-0.3413459 0.93494,-0.68072028 1.40328,-1.01987832 0.30269,-0.21919274 0.60037,-0.44559886 0.90979,-0.65517016 0.15316,-0.10373638 0.31787,-0.18931059 0.47681,-0.28396589 0,0 -9.116157,3.54938797 -9.116157,3.54938797 z"
     id="path85"
     style="fill:#000080;stroke-width:0.264583" />
  <path
     d="m 109.18676,37.768106 c -0.2935,-0.19254 -0.5831,-0.391176 -0.88051,-0.577622 -3.14469,-1.971392 0.30995,0.241334 -4.4043,-2.432106 -1.05989,-0.601062 -2.08148,-1.267285 -3.12222,-1.900928 0,0 -6.258926,4.002821 -6.258926,4.002821 v 0 c 0.93172,0.696563 1.904707,1.34109 2.795154,2.089689 0.485397,0.408072 2.452936,2.347264 3.119122,3.114276 0.19122,0.220154 0.34855,0.467585 0.52283,0.701378 0,0 8.22885,-4.997508 8.22885,-4.997508 z"
     id="path87"
     style="fill:#000080;stroke-width:0.264583" />
  <path
     d="m 55.249846,33.276595 c 0.744583,2.124909 1.978708,4.031652 3.107524,5.96433 0,0 7.043253,-4.003434 7.043253,-4.003434 v 0 c -0.322371,-0.800965 -0.693187,-1.584097 -0.967116,-2.402898 -0.447839,-1.338636 -0.697925,-2.698303 -0.564536,-4.104849 0,0 -8.619125,4.546851 -8.619125,4.546851 z"
     id="path89"
     style="fill:#000080;stroke-width:0.264583" />
  <path
     d="m 54.736042,66.678113 c -0.472536,1.353516 -1.279944,2.537661 -2.035697,3.74142 0,0 7.693658,-3.355199 7.693658,-3.355199 v 0 c 1.059452,-1.440588 2.122294,-2.87881 3.164744,-4.331801 0,0 -8.822705,3.94558 -8.822705,3.94558 z"
     id="path91"
     style="fill:#000080;stroke-width:0.264583" />
</svg>
