<?xml version="1.0" encoding="UTF-8" standalone="no"?>
<svg
   xmlns:dc="http://purl.org/dc/elements/1.1/"
   xmlns:cc="http://creativecommons.org/ns#"
   xmlns:rdf="http://www.w3.org/1999/02/22-rdf-syntax-ns#"
   xmlns:svg="http://www.w3.org/2000/svg"
   xmlns="http://www.w3.org/2000/svg"
   id="svg101"
   version="1.1"
   viewBox="0 0 100 100"
   height="100mm"
   width="100mm">
  <defs
     id="defs95" />
  <metadata
     id="metadata98">
    <rdf:RDF>
      <cc:Work
         rdf:about="">
        <dc:format>image/svg+xml</dc:format>
        <dc:type
           rdf:resource="http://purl.org/dc/dcmitype/StillImage" />
        <dc:title></dc:title>
      </cc:Work>
    </rdf:RDF>
  </metadata>
  <g
     id="layer1">
    <rect
       y="-0.56696427"
       x="-1.5119048"
       height="103.56547"
       width="106.02232"
       id="rect105"
       style="fill:#784421;stroke-width:0.264583" />
    <path
       id="path109"
       d="m 50.270831,77.863094 c -2.219886,0.0092 -4.709464,0.509048 -6.80357,-0.188989 -0.300114,-0.100036 -1.171892,-5.29e-4 -1.322916,-0.377976 -0.297916,-0.744789 -0.656201,-1.847813 -0.755952,-2.645833 -0.21676,-1.734069 -0.146928,-6.971808 0.188987,-8.315476 0.06833,-0.273314 0.316862,-0.480933 0.377975,-0.755951 0.166524,-0.749359 0,-1.876462 0,-2.645834 0,-1.889881 0,-3.779763 0,-5.669642 0,-0.32471 -0.142285,-4.039894 -0.377975,-4.157739 -0.112692,-0.05635 -0.265285,0.05635 -0.377976,0 -0.17357,-0.08678 -1.380874,-2.391328 -1.889882,-2.645834 -0.670795,-0.335399 -1.248188,-1.030634 -1.889879,-1.511905 -0.930939,-0.698201 0.341212,0.71919 -1.13393,-0.755952 -0.259739,-0.259739 -0.331806,-0.662752 -0.566965,-0.944941 -1.910906,-2.293088 -3.256074,-4.925211 -3.590772,-7.9375 -0.123343,-1.110072 0.09827,-0.899522 0.188987,-2.078868 0.03382,-0.439674 -0.129683,-0.901443 0,-1.322917 0.133596,-0.434181 0.540583,-0.733957 0.755952,-1.133927 0.227457,-0.422418 0.33951,-0.900499 0.566965,-1.322917 1.081939,-2.009316 3.032053,-3.783509 5.10268,-4.724703 1.241972,-0.564534 2.825964,-0.989974 4.157736,-1.322917 1.487165,-0.371791 -1.495438,0.797025 1.13393,-0.188988 1.723697,-0.646386 3.650229,-0.880175 5.291667,-1.700893 0.480295,-0.240148 1.736574,0 2.267855,0 1.812136,0 3.374631,0.32394 5.10268,0.755953 0.623255,0.155813 1.286123,0.158428 1.889881,0.377976 1.099826,0.399937 2.049511,1.091957 3.02381,1.700893 0.477805,0.298629 1.113483,0.35753 1.511903,0.755952 0.199213,0.199211 0.194633,0.542049 0.377976,0.755952 0.531958,0.620617 1.347713,1.050289 1.889881,1.700893 0.847918,1.017503 1.25103,2.44084 1.889882,3.590775 1.037421,1.867357 1.324433,4.163295 1.889882,6.236607 0.568475,2.084417 0.642331,5.317165 -0.755955,7.181546 -0.44205,0.589401 -1.015465,1.015468 -1.511903,1.511906 -0.356113,0.356113 -0.597183,0.975159 -0.944941,1.322916 -0.293065,0.293066 -1.542714,0.806075 -1.889881,0.944941 -0.404768,0.161907 -1.093536,-0.08367 -1.511904,0 -0.138128,0.02763 -0.23985,0.161362 -0.377978,0.188987 -0.8363,0.167261 -4.485971,-0.34566 -4.913688,0.188989 -0.49071,0.613386 -0.615429,1.230857 -0.944941,1.889882 -0.07969,0.159366 -0.266668,0.238839 -0.377976,0.377975 -0.527907,0.659882 -0.650433,1.195346 -0.944941,2.078869 -0.538977,1.616932 -0.897818,6.850192 -0.566965,8.504465 0.02763,0.138128 0.18899,0.237111 0.18899,0.377975 0,0.199211 -0.149921,0.371621 -0.18899,0.566965 -0.275788,1.37894 0,3.129526 0,4.535713 0,1.387567 0.04144,2.710503 -0.377976,3.96875 -0.194585,0.583753 0.08206,1.158795 -0.188989,1.700892 -0.02212,0.04422 -2.571234,1.089999 -2.83482,1.13393 -0.248557,0.04143 -0.503967,0 -0.755954,0 z"
       style="fill:#000000;stroke:#00f200;stroke-width:6.165;stroke-linecap:butt;stroke-linejoin:miter;stroke-miterlimit:4;stroke-dasharray:none;stroke-opacity:1" />
  </g>
</svg>
