<?xml version="1.0" encoding="UTF-8" standalone="no"?>
<svg
   xmlns:dc="http://purl.org/dc/elements/1.1/"
   xmlns:cc="http://creativecommons.org/ns#"
   xmlns:rdf="http://www.w3.org/1999/02/22-rdf-syntax-ns#"
   xmlns:svg="http://www.w3.org/2000/svg"
   xmlns="http://www.w3.org/2000/svg"
   xmlns:sodipodi="http://sodipodi.sourceforge.net/DTD/sodipodi-0.dtd"
   xmlns:inkscape="http://www.inkscape.org/namespaces/inkscape"
   inkscape:version="1.0 (4035a4fb49, 2020-05-01)"
   sodipodi:docname="Spirits.svg"
   width="100mm"
   height="100mm"
   viewBox="0 0 100 100"
   version="1.1"
   id="svg101">
  <sodipodi:namedview
     inkscape:current-layer="svg101"
     inkscape:window-maximized="0"
     inkscape:window-y="54"
     inkscape:window-x="553"
     inkscape:cy="188.97638"
     inkscape:cx="188.97638"
     inkscape:zoom="2.667"
     showgrid="false"
     id="namedview869"
     inkscape:window-height="1159"
     inkscape:window-width="1624"
     inkscape:pageshadow="2"
     inkscape:pageopacity="0"
     guidetolerance="10"
     gridtolerance="10"
     objecttolerance="10"
     borderopacity="1"
     bordercolor="#666666"
     pagecolor="#ffffff" />
  <defs
     id="defs95" />
  <metadata
     id="metadata98">
    <rdf:RDF>
      <cc:Work
         rdf:about="">
        <dc:format>image/svg+xml</dc:format>
        <dc:type
           rdf:resource="http://purl.org/dc/dcmitype/StillImage" />
        <dc:title />
      </cc:Work>
    </rdf:RDF>
  </metadata>
  <path
     d="m 46.673701,87.146838 c -0.200253,0.09039 -0.390626,0.207026 -0.600761,0.271177 -1.844249,0.56302 -3.918963,0.491019 -5.81076,0.373184 -2.5922,-0.161459 -3.270655,-0.340074 -5.842061,-0.762569 -1.068959,-0.230206 -2.15116,-0.405781 -3.206872,-0.690621 -0.9927,-0.26784 -1.969357,-0.597839 -2.929731,-0.965086 -2.088937,-0.798814 -4.166866,-1.835182 -5.747105,-3.458689 -0.294161,-0.302215 -0.514997,-0.668009 -0.772495,-1.002016 -0.419994,-0.698762 -0.576039,-1.336424 -0.390319,-2.127907 0.0865,-0.368633 0.311212,-0.703852 0.228761,-1.108231 -0.06428,-0.315256 -0.240207,-0.596968 -0.36031,-0.89545 -0.227264,-0.320487 -0.430621,-0.659347 -0.681793,-0.961462 -1.74844,-2.103053 -0.563439,-0.295015 -2.275829,-2.676006 -0.751178,-1.044474 -1.481975,-2.231364 -2.01574,-3.403634 -0.281949,-0.619221 -0.489529,-1.26968 -0.734293,-1.904519 -0.449738,-1.821376 -0.737948,-2.454222 -0.637071,-4.414168 0.159699,-3.102832 1.426349,-6.048639 2.971566,-8.697034 0.570435,-0.977685 1.255924,-1.883537 1.883886,-2.825308 1.667066,-2.134063 3.499691,-4.310311 5.743985,-5.873972 0.529366,-0.368827 2.239744,-1.281806 1.68554,-0.951476 -13.833514,8.245401 -18.854181,9.230336 -12.626452,7.866631 0.339815,0.0556 0.697216,0.04541 1.019444,0.166788 1.686044,0.635138 2.783564,2.619791 3.273946,4.240837 0.121641,0.402108 0.167948,0.823254 0.251921,1.234879 -0.03516,0.280133 0.166904,0.766109 -0.105479,0.840404 -0.346771,0.09459 -1.223592,-0.365879 -0.921299,-0.560342 4.993992,-3.212595 10.527602,-5.538259 15.484383,-8.807974 0.363241,-0.239609 -0.780429,-0.397232 -1.123204,-0.6653 -1.18741,-0.928622 -1.484498,-1.501921 -2.39227,-2.714998 -0.326652,-0.590661 -0.695947,-1.159672 -0.979958,-1.771978 -0.885262,-1.908567 -1.439424,-4.147111 -1.749899,-6.220251 -0.202446,-1.351783 -0.284033,-3.062354 -0.371618,-4.428289 -0.04442,-1.746829 -0.01561,-2.010905 -0.190016,-3.699915 -0.05347,-0.517861 -0.09789,-1.038497 -0.200228,-1.548953 -0.101896,-0.508232 -0.268374,-1.001405 -0.411,-1.499745 -0.411202,-1.436753 -0.384072,-1.297843 -0.86446,-2.678477 -0.378854,-1.093465 -0.741115,-2.194555 -0.996539,-3.32451 -0.07037,-0.311318 -0.146725,-0.6226 -0.185095,-0.939458 -0.0857,-0.707732 -0.01524,-0.950457 0.06694,-1.650137 0.348684,-1.968917 1.220222,-3.812471 2.317239,-5.473806 0.302258,-0.457741 0.640559,-0.890634 0.960837,-1.335951 1.122823,-1.345018 2.425235,-2.527547 3.881345,-3.5034274 0.433343,-0.2904268 1.794148,-1.0654194 1.343565,-0.8025286 -14.444874,8.427815 -18.811218,10.466006 -12.967439,7.691818 0.835657,-0.251499 1.968552,-0.742706 2.770801,-0.10727 0.387994,0.307318 0.558497,0.688592 0.798602,1.101799 0.0068,0.140678 0.06837,0.289619 0.02038,0.422032 -0.14504,0.400191 -0.772754,0.09391 -0.749987,0.07963 9.810916,-6.154319 18.189648,-14.7006126 15.224966,-8.8054771 0.184756,0.1714905 0.390459,0.4115364 0.675396,0.419348 0.05705,0.00156 1.216729,-0.4511435 1.143077,-0.4074227 C 25.523765,16.534994 19.592853,19.119459 26.15636,16.197303 c 3.869715,-1.168938 7.934578,-1.391616 11.950297,-1.516037 2.223778,-0.0075 4.456358,-0.04032 6.671603,0.194081 1.52077,0.160918 2.047579,0.288383 3.546258,0.565865 1.719303,0.349229 3.404434,0.846081 5.053047,1.443406 0.946468,0.342924 1.868816,0.750361 2.816498,1.089917 0.431485,0.154603 0.870799,0.286418 1.306197,0.429626 1.226847,0.230282 1.502265,0.38091 2.787891,0.200325 1.073737,-0.150822 2.226794,-0.597392 3.216378,-1.000409 0.694881,-0.282995 1.375098,-0.600768 2.064938,-0.895833 0.718817,-0.30746 1.440654,-0.607813 2.160979,-0.911719 1.947868,-0.798409 3.920958,-1.536086 5.925569,-2.17969 0.753173,-0.241815 1.903193,-0.595505 2.699451,-0.753053 0.400404,-0.07922 0.808035,-0.116087 1.212051,-0.174131 1.696836,-0.07342 3.49309,0.178786 4.869616,1.26258 0.226015,0.177949 0.412221,0.401333 0.618332,0.602001 0.16516,0.227329 0.356909,0.437541 0.495485,0.681988 0.784114,1.383184 0.666075,3.001737 0.421949,4.506847 -0.115609,0.612812 -0.433861,1.064473 -0.818729,1.530387 -0.105032,0.12715 -0.201165,0.262361 -0.316235,0.380502 -0.835758,0.85807 0.109066,-0.267701 -0.670396,0.699091 -0.28765,0.315703 -0.64616,0.563127 -0.939821,0.871871 -0.09417,0.09901 -0.166074,0.217767 -0.260734,0.316304 -0.549579,0.57208 -0.06741,-0.07301 -0.542224,0.623472 -0.121028,0.227111 -0.327467,0.391744 -0.466079,0.605391 -0.07507,0.115703 -0.121952,0.247824 -0.193559,0.365702 -0.09995,0.164535 -0.408839,0.562518 -0.485084,0.733158 -0.07955,0.178026 -0.117499,0.371857 -0.17625,0.557785 -0.19599,0.742173 -0.306745,1.503184 -0.410384,2.26257 -0.03704,0.271372 -0.08721,0.541673 -0.104106,0.815041 -0.04053,0.655875 0.01376,0.929007 0.0811,1.566516 0.498022,1.519467 1.463638,2.807181 2.336099,4.125716 0.656947,0.995167 1.357024,1.987421 1.774253,3.111019 0.418092,1.538425 0.640353,3.138511 0.54375,4.734967 -0.02156,0.35623 -0.0802,0.709239 -0.120303,1.063858 -0.257916,1.064913 -0.64194,2.160339 -1.408798,2.976552 -0.177588,0.189015 -0.390255,0.341712 -0.583734,0.514429 -0.221655,0.197871 -0.441095,0.398211 -0.661644,0.597315 -1.293055,1.077913 -2.597136,2.142273 -3.878529,3.234143 -0.03398,0.04041 -0.615998,0.724633 -0.665864,0.811691 -0.08216,0.143431 -0.122777,0.306978 -0.180454,0.461883 -0.200972,0.539742 -0.220006,0.907733 -0.269991,1.475822 0.05268,0.348541 0.134107,0.98324 0.242131,1.325409 0.08271,0.261972 0.201409,0.511212 0.30607,0.765212 0.346091,0.839909 0.722177,1.667272 1.089927,2.497797 0.917707,1.584417 1.559946,3.297084 2.227096,4.995037 0.774676,1.971616 0.341699,0.783507 1.02661,2.771073 0.417755,1.306023 0.836951,2.625683 1.11742,3.970216 0.256301,1.228691 0.354324,2.472545 0.428826,3.722 0.02344,1.462524 0.109405,2.949561 -0.143857,4.396771 -0.224848,1.248341 -0.770295,2.414786 -1.401127,3.506394 -0.03542,0.315555 -0.268137,0.554302 -0.355944,0.848023 -0.194551,0.650788 -0.170762,1.624664 -0.119436,2.293311 0.03004,0.211167 0.03624,0.427127 0.09012,0.6335 0.196295,0.751755 0.591868,1.465828 0.925156,2.161447 0.210799,0.439965 0.416338,0.882433 0.626311,1.322792 0.344022,0.699 0.689501,1.398874 0.860861,2.163702 0.08698,0.388226 0.105283,0.624821 0.152112,1.017347 0.03953,1.047046 -0.448934,1.33876 -1.206272,1.895321 -0.111763,0.06326 -0.230654,0.115327 -0.335294,0.189788 -0.643853,0.458169 0.0514,0.07687 -0.616839,0.483362 -0.306022,0.186153 -0.650663,0.317564 -0.977408,0.461627 5.174671,-2.986122 10.349373,-5.97218 15.524007,-8.958366 0.133432,-0.077 -0.266523,0.154596 -0.4004,0.230818 -0.626456,0.356671 -1.252648,0.674983 -1.924288,0.937744 -1.49579,0.519538 -3.089132,0.555141 -4.655301,0.576096 -0.26915,-0.01556 -0.538581,-0.02686 -0.80745,-0.04666 -0.314674,-0.02318 -0.630545,-0.03834 -0.942996,-0.08226 -1.307182,-0.183737 -2.55619,-0.626057 -3.803425,-1.038902 -1.412193,-0.422645 -2.85033,-0.770737 -4.331708,-0.811419 -0.976861,-0.02682 -1.3804,0.04744 -2.335959,0.149551 -1.7014,0.220273 -3.288014,0.866034 -4.899237,1.41174 -2.354961,0.736988 -4.839726,0.874688 -7.291125,0.720312 -0.636961,-0.04011 -1.269738,-0.130678 -1.904608,-0.196019 -2.576751,-0.339276 -5.098569,-0.980176 -7.529695,-1.890798 -1.64273,-0.565062 -3.108627,-1.51258 -4.713801,-2.16163 -1.956718,-0.669088 -4.01892,-0.267573 -5.979057,0.16976 -1.666332,0.402651 -3.284876,0.969642 -4.917355,1.48622 -0.637712,0.186843 -1.282073,0.363868 -1.903545,0.598046 -0.794118,0.23537 -1.565801,-0.146738 -2.305939,-0.403368 -0.485838,-0.132811 -0.637447,-0.321387 -0.986621,-0.690756 -0.924552,-1.03669 -1.688356,-2.178711 -2.360514,-3.391805 -0.772729,-1.327854 -1.225307,-2.795124 -1.68356,-4.250788 -0.570492,-1.812194 -0.839576,-2.537079 -1.167402,-4.448325 -0.136226,-0.794216 -0.198253,-1.599385 -0.297381,-2.399081 0.0049,-0.863539 -0.04553,-1.729171 0.01471,-2.590622 0.126976,-1.815595 0.558032,-3.942599 0.952076,-5.707229 0.231029,-1.034603 1.260962,-5.154436 1.545966,-6.10448 0.324876,-1.082958 0.722069,-2.142892 1.083106,-3.214338 0.406731,-1.065552 0.797057,-2.137511 1.220192,-3.196657 0.69637,-1.743072 1.897116,-4.427892 2.542305,-6.197872 0.387516,-1.063091 0.70685,-2.149814 1.058481,-3.225305 1.149393,-3.515508 0.915093,-2.802628 2.03753,-6.317028 1.395108,-3.866221 2.577534,-7.902109 4.93758,-11.324898 0.453657,-0.657943 0.948507,-1.292725 1.504884,-1.866431 0.471432,-0.486116 1.042207,-0.864889 1.563312,-1.297333 -4.432962,2.654996 -8.901171,5.252005 -13.298885,7.964987 -0.374591,0.23109 0.789057,-0.409781 1.217229,-0.511717 0.349017,-0.08309 0.729478,-0.127969 1.075772,-0.03417 0.377788,0.102325 0.726734,0.328851 1.00988,0.599078 1.032516,0.985411 1.171181,1.830938 1.689233,3.154783 0.149968,0.88864 0.377872,1.767599 0.449908,2.665923 0.182007,2.269802 -0.01744,4.478232 -0.347311,6.723565 -0.3913,2.663359 -0.837168,4.719188 -1.734555,7.26231 -0.396862,1.124669 -0.916406,2.202206 -1.374608,3.303312 -1.322584,2.791034 -3.001841,5.383429 -4.620289,8.005371 -0.479923,0.777486 -0.977078,1.544918 -1.430682,2.338046 -1.19611,2.091391 -1.241623,2.349376 -2.186696,4.511963 -0.219343,0.728658 -0.527878,1.436228 -0.658021,2.185969 -0.13263,0.764061 -0.132104,1.547665 -0.124688,2.323119 0.02118,2.214628 0.493029,4.40831 1.248473,6.484162 0.22714,0.624147 0.519348,1.22265 0.779023,1.833975 0.312923,0.585441 1.137735,2.295761 1.718752,2.78025 2.070606,1.726618 4.583999,0.943607 6.68519,-0.281514 5.622753,-3.278405 11.087166,-6.821144 16.630748,-10.231713 1.934109,-2.532203 3.142345,-3.869428 4.573272,-6.800971 0.687256,-1.407978 1.214787,-2.890581 1.732188,-4.369438 1.108503,-3.168362 1.774293,-5.709724 2.261296,-9.024321 0.209325,-1.424697 0.27568,-2.866763 0.41352,-4.300143 0.13123,-4.963094 -0.3858,-10.004975 0.700227,-14.900669 0.200774,-0.905063 0.450599,-1.804318 0.79392,-2.665471 0.296854,-0.744609 0.74509,-1.419545 1.117637,-2.129319 1.080412,-1.338406 1.351145,-1.877875 2.737186,-2.852779 0.44432,-0.312524 1.893339,-1.06567 1.427083,-0.786931 -4.617829,2.738565 -9.235657,5.47713 -13.853483,8.215695 0.375481,-0.06904 0.744834,-0.218364 1.126445,-0.207119 0.411686,0.01215 0.802947,0.183872 1.20442,0.275807 0.405903,0.27504 0.857793,0.492157 1.217708,0.825119 1.696958,1.569884 2.458598,3.84039 3.060761,5.997649 1.046628,3.749569 0.872289,3.616436 1.384668,7.652017 0.09072,1.425885 0.227949,2.849571 0.272169,4.277654 0.04212,1.360225 0.02718,2.722335 -0.01328,4.082608 -0.06918,2.325042 -0.271053,5.042411 -0.658678,7.348191 -0.494488,2.941455 -0.77415,3.478461 -1.668259,6.266907 -1.9144,4.636963 -0.355057,0.931516 -2.350442,5.481953 -0.394702,0.900107 -0.823552,1.786755 -1.169114,2.706848 -0.364731,0.971127 -0.649163,1.970622 -0.959398,2.960508 -0.946457,3.019914 -0.796202,2.584315 -1.550897,5.503487 -0.15262,0.910868 -0.622424,2.885175 -0.322107,3.907155 0.366358,1.246714 1.28559,1.93135 2.564596,2.079953 1.612106,0.187306 2.957243,-0.600499 4.37537,-1.176827 5.530651,-3.270718 11.170713,-6.363121 16.591951,-9.812158 0.803527,-0.511206 1.369513,-1.325274 2.014858,-2.025647 1.111771,-1.206571 3.109825,-3.619638 4.00953,-4.966727 1.219018,-1.825185 2.494166,-4.369596 3.511868,-6.301102 0.688861,-1.706165 1.799865,-4.261572 2.254141,-6.097852 0.199086,-0.804749 0.39615,-1.631463 0.366154,-2.459929 -0.02487,-0.687189 -0.02357,-1.526384 -0.527417,-1.994355 -1.943619,-1.805268 -4.230643,-0.834615 -6.400171,-0.499232 -1.484336,0.58024 -2.994858,1.0975 -4.453006,1.740721 -1.484558,0.654867 -2.951699,1.356817 -4.36717,2.150038 -5.703808,3.196376 -11.357096,6.483191 -16.983143,9.814531 -1.373132,0.81307 -2.680222,1.732978 -4.00956,2.615835 -11.797837,7.835347 3.885814,-2.46498 -7.299769,4.863348 3.293695,-1.93639 6.723941,-3.657317 9.881081,-5.809173 1.04403,-0.711594 -2.295549,1.072288 -3.498432,1.458862 -3.450389,1.108866 -7.407846,1.428795 -10.97385,0.698908 -1.22423,-0.250574 -2.392513,-0.722479 -3.588768,-1.083718 -1.119865,-0.586896 -2.290784,-1.085268 -3.35959,-1.760688 -3.325301,-2.101384 -5.933733,-4.934532 -8.059861,-8.216625 -1.720668,-2.656191 -2.148628,-3.878926 -3.437993,-6.726859 -1.517854,-4.188275 -1.121461,-2.738787 -2.167708,-7.023814 -0.295147,-1.20881 -0.573913,-2.421602 -0.848699,-3.6352 -0.274126,-1.210689 -0.467362,-2.441007 -0.798,-3.637497 -0.0031,-0.01114 -2.361265,-7.117432 -2.411297,-7.268213 -0.262696,-0.791951 -1.528708,-4.578546 -1.82492,-5.575321 -0.197068,-0.663149 -0.415442,-1.324007 -0.533742,-2.005627 -0.08985,-0.5177 -0.249284,-1.073972 -0.08751,-1.573888 0.228535,-0.706208 2.444404,-2.516682 2.723291,-2.765377 3.064897,-2.115093 13.759609,-9.401137 -7.6488909,4.192824 -1.2122528,0.769755 2.5488049,-1.326318 3.8548839,-1.923175 2.640751,-1.206781 5.643872,-2.320613 8.395752,-3.21492 1.406228,-0.456997 2.835435,-0.839999 4.253153,-1.259998 3.88126,-1.020801 7.847174,-1.78465 11.86702,-1.937903 2.183953,-0.08326 4.120888,-0.02749 6.234851,0.590663 0.953624,0.278852 1.835994,0.760097 2.753992,1.140145 0.916736,0.605647 1.897343,1.124243 2.750211,1.81694 2.71607,2.205985 4.743625,5.286661 6.418496,8.310193 0.583808,1.053907 1.092835,2.147555 1.645491,3.218128 0.560313,1.08541 1.12893,2.166516 1.693394,3.249773 1.456867,2.805563 2.84815,5.666158 4.637008,8.283091 1.192297,1.744221 2.58368,3.341529 4.001371,4.901819 0.490169,0.602483 1.141915,1.037169 1.679956,1.589167 0.125605,0.128865 0.305956,0.247025 0.33298,0.424939 0.01632,0.107506 -0.169754,0.1396 -0.233886,0.227415 -0.183555,0.251328 -0.333423,0.525658 -0.5055,0.784976 -0.308842,0.465424 -0.624792,0.92609 -0.937185,1.389134 -0.495808,0.608817 -0.963716,1.241462 -1.487424,1.826453 -1.438482,1.606807 -2.870915,2.93057 -4.530683,4.32366 -1.971561,1.654783 -4.108812,3.256388 -6.23787,4.699473 -1.12559,0.762932 -2.288415,1.469433 -3.432624,2.204149 3.131306,-1.853102 6.413251,-3.472519 9.393917,-5.559306 1.201481,-0.841166 -2.634398,1.306166 -4.017195,1.795023 -4.654735,1.645574 -9.441185,2.204252 -14.354323,2.060305 -1.257186,-0.03683 -2.50688,-0.207483 -3.760319,-0.311224 -2.283344,-0.113096 -4.444905,-1.014296 -6.718729,-1.172731 -0.386249,-0.02691 -0.82418,-0.148217 -1.160756,0.04317 -5.440328,3.093543 -10.90661,6.176431 -16.049258,9.74299 -0.397593,0.275741 -0.05891,0.965912 -0.08836,1.448866 0.114087,0.545243 0.191359,1.099505 0.342261,1.635729 0.477895,1.698177 1.252179,3.405528 2.342158,4.801388 0.36107,0.462399 0.731524,0.931905 1.193461,1.293566 0.556545,0.435729 1.219373,0.715222 1.82906,1.072833 0.7382,0.253682 1.462226,0.553135 2.2146,0.761045 1.555281,0.429786 3.357891,0.684392 4.95264,0.886756 2.651091,0.336407 5.314688,0.432054 7.980601,0.584459 3.264016,0.235345 6.54205,0.480653 9.753118,1.143728 0.573326,0.11839 1.138719,0.272391 1.708079,0.408588 0,0 14.200775,-9.927254 14.200775,-9.927254 v 0 C 61.041521,76.964531 59.618412,76.742408 58.1893,76.565934 55.564017,76.241748 52.924346,76.069596 50.287357,75.875062 47.21822,75.644803 48.000519,75.711594 45.00416,75.455705 42.026354,75.201401 39.000005,74.98349 36.197882,73.849671 35.733218,73.594348 35.232119,73.396302 34.803885,73.0837 c -1.476991,-1.07818 -2.708172,-3.254296 -2.794426,-5.087578 -0.01926,-0.409602 0.102529,-0.813673 0.153792,-1.22051 3.729892,-5.311849 0.639844,-0.691303 -14.171014,7.497458 -0.409525,0.226423 0.739524,-0.607435 1.183659,-0.754816 0.621609,-0.206277 1.28987,-0.257524 1.944308,-0.28317 0.48705,-0.01908 6.219418,0.266628 6.240727,0.267644 1.421006,0.02704 2.841784,0.0902 4.263017,0.08113 3.108817,-0.01984 6.742822,-0.169733 9.82045,-0.589531 1.576527,-0.215043 3.163379,-0.434126 4.693017,-0.872173 7.63519,-2.186503 13.686153,-9.273691 20.979286,-11.294324 1.136528,-0.757375 2.289487,-1.490652 3.409582,-2.272125 2.31557,-1.615536 4.346692,-3.166624 6.514566,-4.971238 1.003633,-0.835459 2.003578,-1.677307 2.958356,-2.568191 1.827922,-1.705602 2.576507,-2.665087 4.180663,-4.519211 1.012679,-1.515774 2.485964,-3.117035 1.481212,-5.071797 C 85.522245,41.155162 85.220056,41.002141 84.964612,40.837885 84.315946,40.42078 83.511263,40.279325 82.922576,39.750323 81.611187,38.822209 81.222157,38.612231 79.995874,37.43652 77.160065,34.717659 75.049155,31.363277 73.157112,27.949234 71.959878,25.628619 70.999001,23.719518 69.725636,21.438343 68.664545,19.537451 67.063697,16.707672 65.683464,15.00468 63.971634,12.892545 62.534181,11.896058 60.448529,10.191973 57.946082,9.057064 56.918072,8.3507525 54.114039,8.060867 52.934688,7.9389438 51.74101,8.042719 50.557531,8.114223 c -4.227848,0.2554414 -8.400137,1.0821757 -12.51336,2.0515 -2.103157,0.612674 -6.547935,1.8779 -8.627073,2.600969 -1.498232,0.521045 -6.268062,2.4003 -7.706081,3.19951 -15.7016205,8.72651 -12.1209971,6.229758 -19.8760726,12.02377 -1.43556362,1.595475 -2.68489533,2.350535 -2.80349975,4.631563 -0.0305479,0.587505 0.30650124,1.13964 0.534007,1.682168 0.26735732,0.637561 0.62213453,1.234932 0.94550681,1.84599 2.14914224,4.061121 0.31939883,0.371554 2.56840154,5.053288 0.4363238,1.12147 0.9283289,2.222838 1.308971,3.364409 0.7511272,2.252679 1.3698881,5.006179 1.8926817,7.323768 0.2803385,1.242763 0.5010693,2.499354 0.8148389,3.734101 0.3067158,1.20699 0.659284,2.402832 1.0455169,3.586774 0.4013224,1.230198 0.8773372,2.434759 1.3160057,3.652141 0.5725978,1.138722 1.1025678,2.299896 1.7177928,3.416163 1.313206,2.382689 2.779159,4.667723 4.48526,6.791256 0.866568,1.07859 1.748024,2.156497 2.759049,3.101022 2.230027,2.083348 3.987169,2.899257 6.603786,4.412419 1.221092,0.485723 2.391336,1.126768 3.663275,1.457161 1.223214,0.317736 2.500358,0.397286 3.761978,0.471594 2.645281,0.1558 5.215113,0.01048 7.791731,-0.653272 6.737964,-1.735744 17.324906,-9.205923 20.363293,-10.963839 0.610807,-0.417033 6.399525,-4.371377 6.833878,-4.659082 1.270765,-0.841719 5.201955,-3.168372 3.842613,-2.478783 -2.903223,1.472787 -5.725388,3.108729 -8.48587,4.834284 -1.274699,0.7968 2.653905,-1.416619 4.020439,-2.042986 1.148442,-0.526402 2.344779,-0.941311 3.517169,-1.411967 0.86192,-0.189765 1.719969,-0.398045 2.585755,-0.569296 0.483991,-0.09573 1.008777,-0.426456 1.461918,-0.231325 0.385696,0.166086 0.512365,0.701061 0.588121,1.114107 0.116036,0.632682 0.06643,1.293492 -0.02992,1.929469 -0.316461,2.088856 -1.041242,3.555328 -1.819733,5.525521 -0.57214,1.032957 -1.087686,2.099352 -1.716421,3.098871 -1.158216,1.841262 -2.79223,3.955857 -4.264575,5.581211 -0.720633,0.795517 -1.466131,1.571339 -2.259301,2.294551 -4.304681,3.925004 -11.097038,6.817688 9.911537,-4.963673 -1.650029,0.91477 -1.527429,0.940123 -3.116381,1.523884 -0.282795,0.103896 -1.186127,0.566544 -1.49796,0.01407 -0.388178,-0.687726 -0.212727,-2.457055 -0.197183,-3.055355 0.394089,-2.337313 0.368377,-2.704624 1.177438,-5.086948 1.295598,-3.814961 3.309652,-7.355829 4.414001,-11.241796 0.669491,-2.739255 0.963131,-3.540541 1.251191,-6.397392 0.117586,-1.166157 0.1588,-2.339454 0.188688,-3.511143 0.103735,-4.066908 -0.240657,-8.115916 -0.456348,-12.173085 -0.08484,-1.451827 -0.168294,-2.903736 -0.254524,-4.35548 -0.0807,-1.358601 -0.07442,-2.725452 -0.246274,-4.075557 -0.128329,-1.008203 -0.377384,-1.999928 -0.651621,-2.978566 -0.487085,-1.738204 -0.957453,-2.989821 -2.052027,-4.406966 -0.391909,-0.507405 -0.89998,-0.913371 -1.349973,-1.370057 -0.498633,-0.29494 -0.95509,-0.677102 -1.495906,-0.88482 -0.492001,-0.188969 -1.081733,-0.519115 -1.554877,-0.286933 -5.641568,2.768428 -11.045957,5.999044 -16.488301,9.141074 -0.437367,0.252505 -0.778749,0.648518 -1.11736,1.023207 -1.111477,1.229892 -1.240271,1.720818 -2.037069,3.229756 -0.238704,0.755282 -0.542121,1.493086 -0.716113,2.265846 -0.430242,1.910845 -0.504193,3.856673 -0.526143,5.805943 -0.01333,1.183568 0.01066,2.367603 0.05082,3.550565 0.252566,7.442325 0.225303,0.04486 0.168423,7.868455 -0.255275,3.587665 -0.183457,4.764277 -1.089263,8.320505 -1.131271,4.441404 -3.090987,8.695886 -6.038453,12.235982 -0.905674,1.08777 -1.991701,2.011743 -2.987551,3.017615 3.743765,-2.024076 7.459255,-4.101344 11.231296,-6.07223 0.677637,-0.354065 -1.249082,0.897879 -1.942913,1.219065 -0.440139,0.203748 -1.939295,0.548304 -2.523534,0.270277 -0.643269,-0.306115 -1.478317,-1.657043 -1.823088,-2.143538 -0.719206,-1.469678 -0.968738,-1.795626 -1.383824,-3.423803 -0.504407,-1.978546 -0.606274,-4.004392 -0.153559,-6.003922 0.150514,-0.664771 0.407033,-1.30101 0.61055,-1.951514 0.296685,-0.684128 0.568526,-1.379572 0.890058,-2.052378 2.009201,-4.204274 4.860386,-7.990705 6.371514,-12.436935 0.389419,-1.124408 0.82714,-2.233235 1.168254,-3.373226 0.360804,-1.205786 0.649457,-2.432426 0.935688,-3.658055 0.301787,-1.292228 0.61028,-2.584921 0.827998,-3.893939 0.200602,-1.20613 0.31791,-2.425372 0.425601,-3.643315 0.308957,-3.494263 0.216831,-3.484414 0.132808,-6.882626 -0.219036,-0.800685 -0.355717,-1.628597 -0.657106,-2.402055 -0.4576,-1.17434 -1.29599,-2.548392 -2.384068,-3.271914 -0.48777,-0.324345 -1.061008,-0.562607 -1.643838,-0.621185 -6.7813,-0.681562 -13.060677,23.953364 -17.870622,9.934578 -0.387654,0.483965 -0.815036,0.938623 -1.16296,1.45189 -1.472944,2.172928 -2.358329,4.652378 -3.277533,7.087759 -0.3926,1.040173 -0.801941,2.074304 -1.171771,3.122787 -0.358585,1.016604 -0.675352,2.047473 -1.013028,3.071209 -0.345182,1.057529 -0.697779,2.112667 -1.035545,3.172587 -0.32716,1.026639 -0.614022,2.066203 -0.959182,3.086929 -1.440816,4.26086 -3.320219,8.357055 -4.776388,12.612264 -0.77181,2.277805 -1.496959,4.301857 -2.128242,6.623288 -0.271564,0.998624 -0.492641,2.010473 -0.716644,3.02083 -0.657074,2.963701 -1.215546,5.955985 -1.15674,9.007673 0.499721,3.7084 0.147282,1.283922 0.746564,4.969512 0.12596,0.774658 0.225392,1.553851 0.370087,2.32523 0.309118,1.647915 0.749357,3.275986 1.225854,4.882004 0.357854,0.846225 0.721048,1.707468 1.169373,2.51173 0.160154,0.287305 0.473188,0.706188 0.657261,0.984273 0.09197,0.138944 0.177673,0.281935 0.266509,0.422903 0.395936,0.703961 0.758847,1.274926 1.516898,1.637945 0.878899,0.352219 1.830616,0.550603 2.680241,0.99314 0.126144,0.02792 0.249908,0.07059 0.378431,0.08377 0.115473,0.01185 0.232088,-0.0058 0.348117,-0.0092 0.580729,-0.01722 1.126896,-0.175339 1.671109,-0.378065 1.775672,-0.541306 3.463562,-1.323835 5.241371,-1.861847 1.654787,-0.465317 3.35584,-0.927081 5.091618,-0.760153 0.637426,0.140147 0.717635,0.137136 1.35228,0.366051 1.214872,0.4382 2.33839,1.084604 3.520541,1.598057 0.944533,0.329348 1.129207,0.415012 2.127985,0.670846 2.061263,0.527984 4.179065,0.811217 6.283227,1.101711 0.454205,0.0603 3.338211,0.446646 3.822983,0.497653 0.550784,0.05795 1.104017,0.08962 1.656184,0.132437 0.462941,0.03589 0.92488,0.095 1.389128,0.103677 0.575477,0.01074 1.393211,-0.09451 1.973911,-0.157544 0.646406,-0.130262 0.911677,-0.163126 1.532144,-0.366818 1.173348,-0.385196 2.257507,-1.016106 3.463234,-1.314932 0.87104,-0.222422 1.224857,-0.347654 2.122334,-0.437771 1.337302,-0.134282 2.649437,0.07214 3.923805,0.478507 0.973611,0.288877 1.948749,0.573672 2.919701,0.871394 0.234416,0.07188 1.72085,0.547209 1.990307,0.604227 0.293508,0.06211 0.595501,0.07344 0.893252,0.110164 0.309049,0.02527 0.617299,0.06385 0.92715,0.07579 0.588997,0.0227 1.178925,-0.01273 1.768298,-0.0043 0.68992,0.0099 1.380646,0.0489 2.067494,-0.05084 0.854382,-0.135065 1.736979,-0.308986 2.498772,-0.745456 5.428361,-3.110177 10.844245,-6.242082 16.266364,-9.363123 0.413316,-0.315912 0.755229,-0.673716 1.119103,-1.043551 0.09403,-0.09557 0.200072,-0.180168 0.284604,-0.284239 0.09397,-0.115686 0.165537,-0.247896 0.248304,-0.371843 0.07283,-0.135863 0.157654,-0.265946 0.218482,-0.40759 0.391954,-0.912731 0.374182,-1.920865 0.192468,-2.879307 -0.271795,-1.274077 -0.695139,-2.500421 -1.370658,-3.621839 -0.575844,-1.04816 -1.177165,-2.14195 -1.123119,-3.374575 0.0567,-0.370433 0.07415,-0.570976 0.186214,-0.935339 0.16464,-0.535308 0.477181,-1.015918 0.657757,-1.546149 0.437729,-1.295331 0.879094,-2.604381 1.026366,-3.970789 0.0339,-0.561084 0.06936,-0.871025 0.03967,-1.427652 -0.0568,-1.064914 -0.280881,-2.120366 -0.429813,-3.173373 -0.238506,-1.257954 -0.484748,-2.511692 -0.75638,-3.763015 -0.106595,-0.491049 -0.189849,-0.987828 -0.321191,-1.472843 -0.172442,-0.636781 -0.697904,-2.039027 -0.919578,-2.648217 -0.09175,-0.255329 -0.930685,-2.593105 -1.024927,-2.8427 -0.651817,-1.726284 -1.3711,-3.43223 -1.876541,-5.210058 -0.341321,-0.938297 -1.021604,-2.431722 -0.865365,-3.449643 0.01783,-0.116147 0.07599,-0.22239 0.113977,-0.333584 0.05415,-0.119367 0.0962,-0.245001 0.162441,-0.358105 0.314727,-0.537335 0.862526,-0.884116 1.310781,-1.295578 1.188788,-1.072499 2.423392,-2.097241 3.539127,-3.247768 0.616773,-0.701424 0.758603,-0.773287 1.180941,-1.584597 0.583737,-1.121358 0.779283,-2.376345 0.830935,-3.625006 0.01378,-1.199378 0.0034,-2.395832 -0.06255,-3.594026 -0.02408,-0.437695 -0.118776,-1.707674 -0.187237,-2.169462 -0.044,-0.296812 -0.118931,-0.588208 -0.178396,-0.882311 -0.08788,-0.239641 -0.159618,-0.485831 -0.263633,-0.718921 -0.193212,-0.432953 -0.385879,-0.678976 -0.642371,-1.066755 -0.374698,-0.566489 -0.737765,-1.141164 -1.141058,-1.688214 -0.6945,-0.986324 -0.11076,-0.144685 -0.805376,-1.183905 -0.445185,-0.666042 -0.944232,-1.326465 -1.023705,-2.15106 -0.01085,-0.174273 -0.03455,-0.348219 -0.03258,-0.522819 0.01275,-1.130543 0.394107,-2.261391 1.00244,-3.203916 0.536459,-0.639049 1.011314,-1.324202 1.592596,-1.925173 0.548299,-0.483595 0.01146,0.01196 0.559221,-0.5693 0.387323,-0.411015 0.781865,-0.814473 1.075687,-1.304069 0.805011,-1.07826 1.081012,-2.145882 1.075892,-3.491609 C 100.17822,10.125279 100.0391,8.674823 99.588938,7.2879073 99.452336,6.867045 99.31424,6.4421958 99.108425,6.0505003 98.931641,5.7140575 98.669294,5.4300577 98.449729,5.1198367 97.802133,4.4599031 97.493554,4.0797154 96.714989,3.5566773 95.276878,2.590559 93.572482,2.2877127 91.880522,2.1252051 c -0.474866,0.0082 -0.952338,-0.025727 -1.424604,0.024594 -1.254569,0.1336789 -1.969979,0.426683 -3.171904,0.847939 -2.079697,0.7289008 -4.134517,1.5275319 -6.20382,2.2848302 -1.276993,0.5041519 -2.561217,0.9903423 -3.831141,1.5120453 -0.838173,0.344333 -1.872125,0.8353145 -2.737347,1.142165 -0.385088,0.1365718 -0.769882,0.2893854 -1.173086,0.3554963 -0.397536,0.065181 -0.805354,0.023281 -1.208029,0.034919 C 71.693383,8.2460207 71.249992,8.1930162 70.818967,8.0836732 70.33134,7.959972 69.858326,7.7844331 69.37975,7.6293614 67.121275,6.8975535 64.899365,6.0401403 62.581276,5.5052509 60.811478,5.1286364 59.027517,4.7383223 57.227363,4.5315168 55.510562,4.3342871 53.778581,4.3684062 52.056257,4.4485215 c -3.936442,0.2344333 -7.87409,0.4769983 -11.796525,0.8913503 -7.452796,0.8759801 -1.516091,0.014798 -17.648841,9.5404712 -0.2606,0.153873 -0.44798,0.414249 -0.620035,0.663218 -0.675236,0.977088 -0.425184,1.737157 0.138467,2.684327 0.18733,0.181907 0.354855,0.386731 0.561989,0.545722 0.203703,0.156358 0.436296,0.516158 0.662093,0.393853 C 28.862544,16.183402 34.273331,13.008655 39.555446,9.6389922 39.767795,9.5035252 39.426745,8.1437524 39.387303,8.0334497 39.294022,7.7725616 39.140071,7.537533 39.016453,7.2895745 38.483997,6.5182937 37.740439,5.4237223 36.984521,4.8782829 36.008706,4.1741717 34.919216,4.2475517 33.803862,4.467399 c -7.252081,1.9995338 -1.576245,0.3217844 -17.556668,9.772509 -0.41608,0.246067 -0.774491,0.579699 -1.142792,0.892791 -1.376256,1.169952 -2.60462,2.501243 -3.680103,3.951893 -1.189138,1.81398 -2.3540411,3.659644 -3.0275351,5.741139 -0.2813719,0.869605 -0.2942267,1.346439 -0.3976034,2.236207 0.00542,0.360502 -0.018039,0.722598 0.016264,1.081505 0.066193,0.69256 0.2633421,1.333995 0.4757189,1.991566 0.3640984,1.127342 0.8156662,2.223403 1.2269851,3.333602 0.4290075,1.06416 0.5687775,1.339853 0.9002225,2.463218 0.5973,2.024422 0.91311,4.118486 1.186435,6.206493 0.223394,1.923719 0.279441,2.546085 0.573496,4.490492 0.122694,0.811303 0.218151,1.628542 0.396703,2.429407 0.164616,0.738362 0.394083,1.46155 0.630958,2.179997 0.701951,2.129041 0.805311,2.169348 1.780384,4.157919 1.143926,1.848461 0.950179,1.618978 2.18476,3.304717 0.311432,0.425239 0.462444,1.443295 0.956358,1.259264 14.70273,-5.478214 19.146891,-2.436024 16.378185,-9.932292 -0.99446,-2.390415 -2.14812,-5.367594 -4.362222,-6.898031 -0.428014,-0.295849 -0.932246,-0.462391 -1.398371,-0.69359 -7.727423,-0.859435 -1.572365,-0.476411 -17.95718,8.990277 -0.479379,0.276972 -0.875098,0.681318 -1.2766299,1.062485 -1.8175353,1.725361 -3.2871166,3.781864 -4.6372652,5.879465 -0.5797844,0.980776 -1.2040576,1.936578 -1.7393531,2.942328 -0.9300022,1.747348 -2.3036584,4.749379 -2.81684177,6.667132 -0.265889,0.993619 -0.38487684,2.024719 -0.46950437,3.049813 -0.07931474,0.960739 -0.12148672,1.933188 -0.02102329,2.891946 0.07978856,0.761449 0.37168912,1.485442 0.5575337,2.228164 0.77891523,2.086364 0.69573913,2.075127 1.72835333,4.019579 0.9491937,1.787367 2.1966187,3.434512 2.8182017,5.382194 -0.00314,0.304771 -0.032653,0.609507 -0.021767,0.914101 0.033027,0.924063 0.2498309,1.924386 0.7485462,2.716768 0.2270265,0.360709 0.5468136,0.653915 0.8202202,0.980871 0.4202552,0.340718 0.8165761,0.713288 1.2607658,1.022155 3.8386387,2.669196 8.6186797,3.893933 13.0261987,5.245496 2.998676,0.630439 2.645754,0.572633 5.57591,1.126562 0.755105,0.142748 1.514343,0.263903 2.267352,0.417314 0.544719,0.110977 1.08017,0.264586 1.62487,0.37565 0.47539,0.09693 0.961369,0.13475 1.437772,0.226602 0,0 14.802504,-11.428269 14.802505,-11.428269 z"
     id="path934"
     style="fill:#ffff80;stroke:none;stroke-width:6.165;stroke-miterlimit:4;stroke-dasharray:none;stroke-opacity:1;fill-opacity:1" />
</svg>
