<?xml version="1.0" encoding="UTF-8" standalone="no"?>
<svg
   xmlns:dc="http://purl.org/dc/elements/1.1/"
   xmlns:cc="http://creativecommons.org/ns#"
   xmlns:rdf="http://www.w3.org/1999/02/22-rdf-syntax-ns#"
   xmlns:svg="http://www.w3.org/2000/svg"
   xmlns="http://www.w3.org/2000/svg"
   id="svg101"
   version="1.1"
   viewBox="0 0 100 100"
   height="100mm"
   width="100mm">
  <defs
     id="defs95" />
  <metadata
     id="metadata98">
    <rdf:RDF>
      <cc:Work
         rdf:about="">
        <dc:format>image/svg+xml</dc:format>
        <dc:type
           rdf:resource="http://purl.org/dc/dcmitype/StillImage" />
        <dc:title></dc:title>
      </cc:Work>
    </rdf:RDF>
  </metadata>
  <g
     id="layer1">
    <rect
       y="-3.96875"
       x="-1.7008928"
       height="109.04613"
       width="102.62054"
       id="rect966"
       style="fill:#800000;stroke:none;stroke-width:6.165;stroke-miterlimit:4;stroke-dasharray:none;stroke-opacity:1" />
    <path
       d="m 15.049371,30.325917 c 1.430085,-0.0031 2.803724,0.544716 4.240923,0.460274 0.415155,-0.02439 0.824254,-0.111344 1.23638,-0.167018 1.757267,-0.372808 3.444066,-1.010396 5.201072,-1.383318 0.881818,-0.187167 1.254613,-0.218551 2.136543,-0.333518 1.774471,-0.238683 3.512836,-0.678828 5.271082,-1.011092 0,0 7.219238,-5.456515 7.219238,-5.456515 v 0 c -1.76281,0.341184 -3.504591,0.780801 -5.272672,1.091588 -1.17602,0.127913 -2.349166,0.271794 -3.498146,0.566737 -1.31168,0.336708 -2.583876,0.827719 -3.903848,1.137148 -0.884711,0.195295 -1.130363,0.312454 -2.008268,0.284853 -1.035305,-0.03255 -2.05355,-0.350697 -3.046405,-0.611238 0,0 -7.575899,5.422099 -7.575899,5.422099 z"
       id="path970"
       style="fill:#ff0000;stroke:none;stroke-width:6.165;stroke-miterlimit:4;stroke-dasharray:none;stroke-opacity:1" />
    <path
       d="m 70.752228,19.355998 c 2.481784,-0.368864 4.94002,0.09951 7.363114,0.608155 0,0 7.256055,-5.043274 7.256055,-5.043274 v 0 c -2.354244,-0.505704 -4.718064,-1.104252 -7.143137,-1.060185 0,0 -7.476032,5.495304 -7.476032,5.495304 z"
       id="path972"
       style="fill:#ff0000;stroke:none;stroke-width:6.165;stroke-miterlimit:4;stroke-dasharray:none;stroke-opacity:1" />
    <path
       d="m 53.992427,46.544309 c 3.032475,-0.197356 6.082814,-0.02439 9.092848,0.374798 0.665819,0.0883 1.327299,0.206714 1.990948,0.31007 2.568416,0.404974 5.063355,1.171115 7.619158,1.631143 1.934943,0.129839 3.871923,-0.148997 5.798214,-0.3136 0,0 7.214039,-5.352994 7.214039,-5.352994 v 0 c -1.855319,0.21486 -3.716631,0.43279 -5.587399,0.423458 -2.702213,-0.24805 -5.332748,-0.960268 -8.017507,-1.33354 -3.543758,-0.521189 -7.099038,-0.977043 -10.680396,-1.137478 0,0 -7.429905,5.398143 -7.429905,5.398143 z"
       id="path974"
       style="fill:#ff0000;stroke:none;stroke-width:6.165;stroke-miterlimit:4;stroke-dasharray:none;stroke-opacity:1" />
    <path
       d="m 12.204056,53.212063 c 0.271054,-0.04885 0.543365,-0.09116 0.813161,-0.146537 2.053635,-0.421508 1.112485,-0.293979 3.342154,-0.663562 1.599687,-0.26516 2.080936,-0.30802 3.666848,-0.503063 0,0 6.966252,-5.193987 6.966252,-5.193987 v 0 c -2.429116,0.304553 -4.857714,0.618714 -7.281954,0.957453 0,0 -7.506461,5.549696 -7.506461,5.549696 z"
       id="path976"
       style="fill:#ff0000;stroke:none;stroke-width:6.165;stroke-miterlimit:4;stroke-dasharray:none;stroke-opacity:1" />
    <path
       d="m 37.536178,87.51427 c 2.502823,-0.270335 5.026887,-0.243234 7.53347,-0.03858 0.649227,0.05301 1.29553,0.137208 1.943293,0.205809 0,0 7.020097,-4.995101 7.020097,-4.995101 v 0 c -3.042689,-0.282093 -6.087282,-0.54457 -9.145087,-0.579789 0,0 -7.351773,5.407657 -7.351773,5.407657 z"
       id="path978"
       style="fill:#ff0000;stroke:none;stroke-width:6.165;stroke-miterlimit:4;stroke-dasharray:none;stroke-opacity:1" />
    <path
       d="m 22.302626,67.840317 c 4.332089,-1.086652 8.780851,-1.635665 13.209495,-2.162215 0.720963,-0.07773 1.441928,-0.155466 2.162892,-0.233201 0,0 6.826255,-5.088051 6.826255,-5.088051 v 0 c -0.754687,0.103341 -1.509371,0.206679 -2.264058,0.31002 -4.210839,0.521033 -8.423074,1.034574 -12.625078,1.623325 0,0 -7.309506,5.550122 -7.309506,5.550122 z"
       id="path980"
       style="fill:#ff0000;stroke:none;stroke-width:6.165;stroke-miterlimit:4;stroke-dasharray:none;stroke-opacity:1" />
    <path
       d="m -1.3771936,87.19626 c 2.6020427,-0.229394 5.2000851,0.02503 7.7789127,0.361844 0,0 7.1214099,-5.040297 7.1214099,-5.040297 v 0 c -2.467917,-0.29323 -4.933468,-0.621186 -7.4167119,-0.758711 0,0 -7.4836107,5.437164 -7.4836107,5.437164 z"
       id="path982"
       style="fill:#ff0000;stroke:none;stroke-width:6.165;stroke-miterlimit:4;stroke-dasharray:none;stroke-opacity:1" />
    <path
       d="m 76.032489,103.85508 c 1.701546,-0.0866 3.406216,-0.0896 5.109342,-0.13417 0.290848,-0.006 0.581697,-0.0116 0.872548,-0.0173 0,0 7.323717,-5.361076 7.323717,-5.361076 v 0 c -0.30181,0.0154 -0.60362,0.03081 -0.905433,0.04622 -1.61267,0.0591 -3.228676,0.08989 -4.839841,-0.02655 0,0 -7.560333,5.492906 -7.560333,5.492906 z"
       id="path984"
       style="fill:#ff0000;stroke:none;stroke-width:6.165;stroke-miterlimit:4;stroke-dasharray:none;stroke-opacity:1" />
    <path
       d="m 67.364263,69.848647 c 2.61103,-0.527748 5.252243,-0.831194 7.902953,-1.06807 0,0 6.938333,-5.137338 6.938333,-5.137338 v 0 c -2.443197,0.224002 -4.888876,0.415481 -7.331406,0.644446 0,0 -7.50988,5.560962 -7.50988,5.560962 z"
       id="path986"
       style="fill:#ff0000;stroke:none;stroke-width:6.165;stroke-miterlimit:4;stroke-dasharray:none;stroke-opacity:1" />
    <path
       d="m 46.92443,10.475454 c 1.896761,-0.14064 3.801923,-0.05131 5.681933,0.229833 0.492694,0.07368 0.980903,0.174711 1.471356,0.262067 0,0 7.217306,-5.0545143 7.217306,-5.0545143 v 0 C 60.217163,5.7264691 59.239864,5.5467302 58.153101,5.4036621 56.66687,5.2080059 56.695181,5.2553856 55.291878,5.1194297 55.004437,5.0915815 54.718,5.0541898 54.431059,5.0215696 c 0,0 -7.506629,5.4538844 -7.506629,5.4538844 z"
       id="path988"
       style="fill:#ff0000;stroke:none;stroke-width:6.165;stroke-miterlimit:4;stroke-dasharray:none;stroke-opacity:1" />
    <path
       d="M 4.8857571,8.9451131 C 7.2736225,8.5495632 9.6752015,8.2473034 12.081801,7.9930137 c 0,0 7.121798,-5.2918232 7.121798,-5.2918232 v 0 c -1.319746,0.1444905 -2.64315,0.2534557 -3.962697,0.3974507 -0.714379,0.077956 -1.424643,0.1909257 -2.138997,0.2691109 -0.261217,0.02859 -0.523483,0.046616 -0.785224,0.069924 0,0 -7.4309239,5.5074369 -7.4309239,5.507437 z"
       id="path990"
       style="fill:#ff0000;stroke:none;stroke-width:6.165;stroke-miterlimit:4;stroke-dasharray:none;stroke-opacity:1" />
  </g>
</svg>
